<svg xmlns="http://www.w3.org/2000/svg" width="16" height="16"><style type="text/css">.icon-canvas-transparent{opacity:0;fill:#F6F6F6;} .icon-vs-out{fill:#F6F6F6;} .icon-vs-bg{fill:#424242;} .icon-vs-fg{fill:#F0EFF1;} .icon-vs-action-green{fill:#388A34;}</style><path class="icon-canvas-transparent" d="M16 16h-16v-16h16v16z" id="canvas"/><path class="icon-vs-out" d="M16 2v8h-3v3h-3v3h-8v-10h-2v-4h2v-2h4v2h10z" id="outline"/><path class="icon-vs-bg" d="M15 3v6h-3v3h-3v3h-6v-6h3v-3h3v-3h6z" id="iconBg"/><path class="icon-vs-fg" d="M14 4v4h-2v-2h-2v-2h4zm-7 5h2v2h2v-4h-4v2zm-3 5h4v-4h-4v4z" id="iconFg"/><path class="icon-vs-action-green" d="M3.018 5h-2.018v-1.982h2.018v-2.018h1.982v2.018h2v1.982h-2v2h-1.982v-2z" id="colorAction"/></svg>