<svg xmlns="http://www.w3.org/2000/svg" width="16" height="16"><style type="text/css">.icon-canvas-transparent{opacity:0;fill:#F6F6F6;} .icon-vs-out{fill:#F6F6F6;} .icon-vs-bg{fill:#424242;} .icon-vs-fg{fill:#F0EFF1;} .icon-vs-action-green{fill:#388A34;}</style><path class="icon-canvas-transparent" d="M16 16h-16v-16h16v16z" id="canvas"/><path class="icon-vs-out" d="M12.414 2h-6.414v-2h-4v2h-2v4h2v2h2v6c0 1.299 1.012 2 1.965 2h8c1.442 0 2.007-1.175 2.035-2v-8.414l-3.586-3.586z" id="outline"/><path class="icon-vs-bg" d="M15 6v8s-.035 1-1.035 1h-8s-.965 0-.965-1v-6h1v6h8v-7h-3v-3h-3v-1h4l3 3z" id="iconBg"/><path class="icon-vs-fg" d="M14 7v7h-8v-8h2v-2h3v3h3z" id="iconFg"/><path class="icon-vs-action-green" d="M7 3.018h-2v-2.018h-1.981v2.018h-2.019v1.982h2.019v2h1.981v-2h2v-1.982z" id="colorAction"/></svg>