<svg xmlns="http://www.w3.org/2000/svg" viewBox="0 0 16 16"><style>.icon-canvas-transparent{opacity:0;fill:#f6f6f6}.icon-vs-out{fill:#f6f6f6}.icon-folder{fill:#dcb67a}.icon-vs-action-green{fill:#388a34}</style><path class="icon-canvas-transparent" d="M16 16H0V0h16v16z" id="canvas"/><path class="icon-vs-out" d="M16 6.5v7c0 .827-.673 1.5-1.5 1.5h-11c-.827 0-1.5-.673-1.5-1.5V6H0V2h2V0h4v2h2v1h2.618l1 2H14.5c.827 0 1.5.673 1.5 1.5z" id="outline"/><path class="icon-folder" d="M15 6.5v7a.5.5 0 0 1-.5.5h-11a.5.5 0 0 1-.5-.5V8h3V6h3.5L9 5H8V4h2l1 2h3.5a.5.5 0 0 1 .5.5z" id="iconBg"/><path class="icon-vs-action-green" d="M7 5H5v2H3V5H1V3h2V1h2v2h2v2z" id="colorAction"/></svg>