<svg xmlns="http://www.w3.org/2000/svg" width="16" height="16"><style type="text/css">.icon-canvas-transparent{opacity:0;fill:#F6F6F6;} .icon-vs-out{fill:#F6F6F6;} .icon-vs-bg{fill:#424242;} .icon-vs-fg{fill:#F0EFF1;} .icon-vs-action-green{fill:#388A34;}</style><path class="icon-canvas-transparent" d="M16 16h-16v-16h16v16z" id="canvas"/><path class="icon-vs-out" d="M16 3v10h-5v3h-8v-8h-1v-2h-2v-4h2v-2h10v3h4z" id="outline"/><path class="icon-vs-bg" d="M15 4v8h-4v-1h3v-6h-4v1h-1v-2h6zm-5-2v1h1v-2h-5v1h4zm-4 5v1h3v6h-4v-6h-1v7h6v-8h-4z" id="iconBg"/><path class="icon-vs-fg" d="M14 5v6h-3v-5h-1v-1h4zm-5 3h-4v6h4v-6zm-1-6v1h2v-1h-2z" id="iconFg"/><path class="icon-vs-action-green" d="M3 7v-2h-2v-2h2v-2h2v2h2v2h-2v2h-2z" id="colorAction"/></svg>