<svg width="16" height="16" xmlns="http://www.w3.org/2000/svg" xmlns:svg="http://www.w3.org/2000/svg">
 <style type="text/css">.icon-canvas-transparent{opacity:0;fill:#F6F6F6;} .icon-vs-out{fill:#F6F6F6;} .icon-vs-bg{fill:#424242;} .icon-vs-fg{fill:#F0EFF1;}</style>
 <g>
  <title>Layer 1</title>
  <path class="icon-canvas-transparent" d="m16,16l-16,0l0,-16l16,0l0,16z" id="canvas"/>
  <path class="icon-vs-out" d="m16,3.556l0,8.444c0,0.97 -0.701,2 -2,2l0,2l-14,0l0,-1.178l1.771,-4.822l2.229,0l0,-8c0,-1.299 1.03,-2 2,-2l6.061,0l3.939,3.556z" id="outline"/>
  <path class="icon-vs-bg" d="m3.991,15l-0.287,-1l-1.435,0l-0.284,1l-0.985,0l1.469,-4l1.077,0l1.435,4l-0.99,0zm-0.997,-3.234l-0.517,1.619l1.007,0l-0.49,-1.619zm5.209,2.093l-0.029,0.262l-0.1,0.261c-0.048,0.083 -0.107,0.163 -0.182,0.238c-0.073,0.074 -0.166,0.14 -0.272,0.196c-0.11,0.056 -0.237,0.102 -0.382,0.134c-0.148,0.032 -0.313,0.05 -0.503,0.05l-0.272,-0.021l-0.286,-0.052l-0.248,-0.073l-0.169,-0.085l0,-0.856l0.204,0.154l0.259,0.129l0.284,0.091l0.273,0.032l0.242,-0.034l0.152,-0.092l0.079,-0.125l0.023,-0.139l-0.043,-0.181l-0.127,-0.153l-0.211,-0.147l-0.294,-0.154c-0.162,-0.079 -0.299,-0.16 -0.41,-0.245c-0.11,-0.085 -0.199,-0.174 -0.268,-0.267c-0.068,-0.093 -0.117,-0.19 -0.146,-0.292c-0.029,-0.102 -0.044,-0.209 -0.044,-0.321c0,-0.172 0.034,-0.327 0.098,-0.468c0.066,-0.139 0.158,-0.26 0.279,-0.36c0.12,-0.1 0.265,-0.176 0.435,-0.231c0.17,-0.054 0.36,-0.081 0.566,-0.081l0.277,0.013l0.256,0.03l0.215,0.044l0.163,0.05l0,0.838l-0.181,-0.115l-0.223,-0.094l-0.243,-0.063l-0.243,-0.022l-0.188,0.022l-0.158,0.069l-0.111,0.119l-0.042,0.171l0.037,0.18l0.107,0.148l0.183,0.132l0.254,0.133c0.177,0.085 0.326,0.171 0.452,0.26c0.123,0.087 0.226,0.179 0.304,0.274c0.08,0.098 0.139,0.198 0.177,0.304c0.037,0.105 0.056,0.217 0.056,0.337zm3.797,-2.859l-0.149,0l-0.674,2.382l-0.034,0.133l-0.04,0.157l-0.038,0.164l-0.031,0.164l-0.014,0l-0.023,-0.162l-0.032,-0.181l-0.037,-0.147l-0.033,-0.126l-0.709,-2.384l-1.186,0l0,4l1,0l0,-2.084l0.64,2.084l0.676,0l0.684,-2.279l0,2.279l1,0l0,-4l-1,0zm-0.359,-10l-5.677,0s-0.964,0 -0.964,1l0,8l1,0l0,-8l5,0l0,3l3,0l0,7.995c0.962,-0.025 1,-0.995 1,-0.995l0,-8l-3.359,-3z" id="iconBg"/>
  <path class="icon-vs-fg" d="m14,5l0,5l-8,0l0,-8l5,0l0,3l3,0z" id="iconFg"/>
 </g>
 <g>
  <title>Layer 2</title>
  <path id="svg_1" fill="#99b8c4" d="m11.80313,9.23538l0.22865,-0.22289c1.05789,0.03322 1.07415,-0.00266 1.12056,-0.10929l0.29064,-0.69259l0.02168,-0.06644l-0.02371,-0.05747c-0.01253,-0.03056 -0.05081,-0.12125 -0.71136,-0.73877l0,-0.32487c0.76217,-0.72016 0.74523,-0.75704 0.70255,-0.86367l-0.29064,-0.6999c-0.04336,-0.1053 -0.05996,-0.14616 -1.1104,-0.11826l-0.22865,-0.23253a5.12347,5.02421 0 0 0 -0.03591,-1.02311l-0.02947,-0.06644l-0.75573,-0.32387c-0.11145,-0.04983 -0.1504,-0.06644 -0.86379,0.69425l-0.32079,-0.00465c-0.73439,-0.769 -0.76928,-0.75504 -0.88073,-0.7112l-0.70255,0.2787c-0.11009,0.04352 -0.14905,0.05913 -0.10636,1.10549l-0.22696,0.2219c-1.05755,-0.03322 -1.07381,0.00299 -1.11954,0.10929l-0.29132,0.69425l-0.02303,0.06644l0.02405,0.0578c0.01253,0.0299 0.04946,0.11958 0.71136,0.7381l0,0.32387c-0.76217,0.72016 -0.74523,0.75704 -0.70187,0.86367l0.28929,0.7019c0.04438,0.10729 0.05996,0.14549 1.11006,0.11859l0.22865,0.23253a5.14278,5.04315 0 0 0 0.03387,1.02145l0.02947,0.06644l0.76048,0.32587c0.11043,0.04551 0.14905,0.06145 0.8604,-0.69758l0.32079,0.00399c0.73541,0.76999 0.77301,0.75504 0.88073,0.71219l0.70086,-0.2777c0.11449,-0.04352 0.15311,-0.05846 0.10874,-1.10549l-0.00002,0zm-3.01277,-1.62535a1.25944,1.23504 0 1 1 1.64832,0.70356a1.27401,1.24933 0 0 1 -1.64832,-0.70356z"/>
 </g>
</svg>