<svg xmlns="http://www.w3.org/2000/svg" width="16" height="16"><style type="text/css">.icon-canvas-transparent{opacity:0;fill:#F6F6F6;} .icon-vs-out{fill:#F6F6F6;} .icon-vs-bg{fill:#424242;} .icon-vs-fg{fill:#F0EFF1;}</style><path class="icon-canvas-transparent" d="M16 16h-16v-16h16v16z" id="canvas"/><path class="icon-vs-out" d="M16 3.556v8.444c0 .97-.701 2-2 2v2h-14v-1.178l1.771-4.822h2.229v-8c0-1.299 1.03-2 2-2h6.061l3.939 3.556z" id="outline"/><path class="icon-vs-bg" d="M3.991 15l-.287-1h-1.435l-.284 1h-.985l1.469-4h1.077l1.435 4h-.99zm-.997-3.234l-.517 1.619h1.007l-.49-1.619zm5.209 2.093l-.029.262-.1.261c-.048.083-.107.163-.182.238-.073.074-.166.14-.272.196-.11.056-.237.102-.382.134-.148.032-.313.05-.503.05l-.272-.021-.286-.052-.248-.073-.169-.085v-.856l.204.154.259.129.284.091.273.032.242-.034.152-.092.079-.125.023-.139-.043-.181-.127-.153-.211-.147-.294-.154c-.162-.079-.299-.16-.41-.245-.11-.085-.199-.174-.268-.267-.068-.093-.117-.19-.146-.292-.029-.102-.044-.209-.044-.321 0-.172.034-.327.098-.468.066-.139.158-.26.279-.36.12-.1.265-.176.435-.231.17-.054.36-.081.566-.081l.277.013.256.03.215.044.163.05v.838l-.181-.115-.223-.094-.243-.063-.243-.022-.188.022-.158.069-.111.119-.042.171.037.18.107.148.183.132.254.133c.177.085.326.171.452.26.123.087.226.179.304.274.08.098.139.198.177.304.037.105.056.217.056.337zm3.797-2.859h-.149l-.674 2.382-.034.133-.04.157-.038.164-.031.164h-.014l-.023-.162-.032-.181-.037-.147-.033-.126-.709-2.384h-1.186v4h1v-2.084l.64 2.084h.676l.684-2.279v2.279h1v-4h-1zm-.359-10h-5.677s-.964 0-.964 1v8h1v-8h5v3h3v7.995c.962-.025 1-.995 1-.995v-8l-3.359-3z" id="iconBg"/><path class="icon-vs-fg" d="M14 5v5h-8v-8h5v3h3z" id="iconFg"/></svg>