<svg xmlns="http://www.w3.org/2000/svg" width="16" height="16"><style type="text/css">.icon-canvas-transparent{opacity:0;fill:#F6F6F6;} .icon-vs-out{fill:#F6F6F6;} .icon-vs-bg{fill:#424242;} .icon-vs-fg{fill:#F0EFF1;}</style><path class="icon-canvas-transparent" d="M16 16h-16v-16h16v16z" id="canvas"/><path class="icon-vs-out" d="M4 15c-.97 0-2-.701-2-2v-10c0-1.299 1.03-2 2-2h6.061l3.939 3.556v8.444c0 .97-.701 2-2 2h-8z" id="outline"/><path class="icon-vs-bg" d="M9.641 2h-5.677s-.964 0-.964 1v10c0 1 .965 1 .965 1h8l1.035-1v-8l-3.359-3zm2.359 11h-8v-10h5v3h3v7zm-5.442-5c-.506 0-.892.176-1.159.525-.266.351-.399.86-.399 1.528 0 1.287.492 1.934 1.477 1.934.49 0 .867-.174 1.129-.522.263-.348.394-.848.394-1.5 0-1.311-.48-1.965-1.442-1.965zm-.052 3.336c-.387 0-.58-.436-.58-1.305 0-.922.197-1.383.592-1.383.369 0 .554.447.554 1.344-.001.895-.189 1.344-.566 1.344zm2.98-3.301h.514v3.965h-.847v-3.001l-.165.116-.203.102-.119.039v-.772l.291-.117c.195-.099.372-.211.529-.332z" id="iconBg"/><path class="icon-vs-fg" d="M7.071 9.992c0 .895-.188 1.344-.565 1.344-.387 0-.58-.436-.58-1.305 0-.922.197-1.383.592-1.383.369 0 .553.448.553 1.344zm4.929-3.992v7h-8v-10h5v3h3zm-4 3.965c0-1.311-.48-1.965-1.442-1.965-.506 0-.892.176-1.159.525-.266.351-.399.86-.399 1.528 0 1.287.492 1.934 1.477 1.934.49 0 .867-.174 1.129-.522.263-.348.394-.848.394-1.5zm2-1.93h-.514c-.157.121-.334.233-.529.332l-.291.117v.771l.119-.039.203-.102.165-.115v3.001h.847v-3.965z" id="iconFg"/></svg>