<svg xmlns="http://www.w3.org/2000/svg" width="16" height="16"><style type="text/css">.icon-canvas-transparent{opacity:0;fill:#F6F6F6;} .icon-vs-out{fill:#F6F6F6;} .icon-vs-bg{fill:#424242;}</style><path class="icon-canvas-transparent" d="M16 16h-16v-16h16v16z" id="canvas"/><path class="icon-vs-out" d="M5 15v-6.414l1-1v-1.586h-4v-6h9.036l.066.009c2.222.3 3.898 2.231 3.898 4.491 0 .21-.026.412-.057.614l-1.975.085c-.14-.695-.758-1.199-1.468-1.199-.697 0-1.327.474-1.5 1.115v2.471l1 1v6.414h-6z" id="outline"/><path class="icon-vs-bg" d="M14 4.5c0 .171-.026.335-.051.5-.231-1.141-1.239-2-2.449-2s-2.269.859-2.5 2v3l1 1v5h-4v-5l1-1v-3c0-.552-.447-1-1-1s-1 .448-1 1h-2v-4h2c0 .552.447 1 1 1s1-.448 1-1h3.969c1.709.231 3.031 1.727 3.031 3.5z" id="iconBg"/></svg>