<svg xmlns="http://www.w3.org/2000/svg" viewBox="0 0 16 16"><style>.icon-canvas-transparent{opacity:0;fill:#f6f6f6}.icon-vs-out{fill:#f6f6f6}.icon-vs-bg{fill:#424242}</style><path class="icon-canvas-transparent" d="M16 0v16H0V0h16z" id="canvas"/><path class="icon-vs-out" d="M15 5v11H1V5h3v2h2.547l-2.5-2.5 2.118-2.12.305.304V.015h3v2.687l.309-.308 2.117 2.117L9.421 7H12V5h3z" id="outline"/><path class="icon-vs-bg" d="M9 10H7V8h2v2zm3-2h-2v2h2V8zm-1 3H9v2h2v-2zm-6 2h2v-2H5v2zm8-7v8H3V6H2v9h12V6h-1zM6 8H4v2h2V8zm4.485-3.487l-.707-.707-1.308 1.3V1.015h-1v4.073L6.167 3.793 5.46 4.5l2.525 2.525 2.5-2.512z" id="iconBg"/></svg>