<svg xmlns="http://www.w3.org/2000/svg" viewBox="0 0 16 16"><style>.icon-canvas-transparent{opacity:0;fill:#f6f6f6}.icon-vs-out{fill:#f6f6f6}.icon-vs-bg{fill:#424242}.icon-vs-fg{fill:#f0eff1}</style><path class="icon-canvas-transparent" d="M16 0v16H0V0h16z" id="canvas"/><path class="icon-vs-out" d="M15 5v11H1V5h3v2H6.554L4.059 4.506l2.119-2.119.305.303V.021h3v2.687l.31-.308 2.117 2.117L9.44 7H12V5h3z" id="outline"/><path class="icon-vs-fg" d="M5 14v-2h2v2H5zm4 0v-2h2v2H9z" id="iconFg"/><path class="icon-vs-bg" d="M10 8h2v2h-2V8zm-3 2h2V8H7v2zm6-4v5H3V6H2v9h12V6h-1zm-6 8H5v-2h2v2zm4 0H9v-2h2v2zM6 8H4v2h2V8zm4.498-3.481l-.707-.707-1.308 1.3V1.021h-1v4.073L6.18 3.799l-.707.707 2.525 2.525 2.5-2.512z" id="iconBg"/></svg>