<svg xmlns="http://www.w3.org/2000/svg" viewBox="0 0 16 16"><style>.icon-canvas-transparent{opacity:0;fill:#f6f6f6}.icon-vs-out{fill:#f6f6f6}.icon-vs-bg{fill:#424242}.icon-vs-blue{fill:#1ba1e2}</style><path class="icon-canvas-transparent" d="M16 16H0V0h16v16z" id="canvas"/><path class="icon-vs-out" d="M5 6h11v3H5v2h11v3H5v1H0V0h5v1h11v3H5v2z" id="outline"/><path class="icon-vs-bg" d="M6 13h9v-1H6v1zM6 2v1h9V2H6zm0 6h9V7H6v1z" id="iconBg"/><path class="icon-vs-blue" d="M1 6h3v3H1V6zm0 8h3v-3H1v3zM1 4h3V1H1v3z" id="colorImportance"/></svg>