<svg xmlns="http://www.w3.org/2000/svg" width="16" height="16"><style type="text/css">.icon-canvas-transparent{opacity:0;fill:#F6F6F6;} .icon-vs-out{fill:#F6F6F6;} .icon-vs-bg{fill:#424242;} .icon-vs-fg{fill:#F0EFF1;}</style><path class="icon-canvas-transparent" d="M16 16h-16v-16h16v16z" id="canvas"/><path class="icon-vs-out" d="M4 15c-.97 0-2-.701-2-2v-10c0-1.299 1.03-2 2-2h6.061l3.939 3.556v8.444c0 .97-.701 2-2 2h-8z" id="outline"/><path class="icon-vs-bg" d="M9.641,2H3.964C3.964,2,3,2,3,3c0,0.805,0,7.442,0,10c0,1,0.964,1,0.964,1s7,0,8,0S13,13,13,13V5L9.641,2zM12,13H4V3h5v3h3V13z" id="iconBg"/><path class="icon-vs-fg" d="M9 6v-3h-5v10h8v-7h-3zm0 2.181c-.148-.108-.308-.194-.479-.26-.172-.066-.358-.098-.558-.098-.197 0-.382.035-.555.102-.172.068-.323.169-.45.299-.125.131-.225.293-.298.484-.072.192-.109.411-.109.658 0 .229.032.436.097.621.063.184.155.34.275.468.121.128.267.226.438.297.171.069.366.104.584.104l.271-.031.276-.081.268-.116.24-.147v.901c-.156.091-.338.163-.543.216-.205.054-.446.081-.725.081-.34 0-.646-.056-.919-.168-.273-.111-.505-.266-.697-.466-.192-.198-.339-.434-.442-.705-.103-.272-.155-.565-.155-.882 0-.373.056-.709.167-1.011.112-.303.272-.56.482-.773.208-.214.462-.379.76-.497.299-.118.632-.177 1-.177l.34.022.298.053.249.073.185.078v.955z" id="iconFg"/><path class="icon-vs-bg" d="M8.457 11.599c-.205.054-.446.081-.725.081-.34 0-.646-.056-.919-.168-.273-.112-.505-.267-.697-.467-.192-.198-.339-.434-.442-.705-.103-.272-.155-.565-.155-.882 0-.373.056-.709.167-1.011.112-.303.272-.56.482-.773.208-.214.462-.379.76-.497.299-.118.632-.177 1-.177l.34.022.298.053.249.073.185.078v.955c-.148-.108-.308-.194-.479-.26-.172-.066-.358-.098-.558-.098-.197 0-.382.035-.555.102-.172.068-.323.169-.45.299-.125.131-.225.293-.298.484-.072.192-.109.411-.109.658 0 .229.032.436.097.621.063.184.155.34.275.468.121.128.267.226.438.297.171.069.366.104.584.104l.271-.031.276-.081.268-.116.24-.147v.901c-.156.092-.338.164-.543.217z" id="colorImportance"/></svg>