<svg width="16" height="16" xmlns="http://www.w3.org/2000/svg" xmlns:svg="http://www.w3.org/2000/svg">
 <style type="text/css">.icon-canvas-transparent{opacity:0;fill:#F6F6F6;} .icon-vs-out{fill:#F6F6F6;} .icon-vs-bg{fill:#424242;} .icon-vs-fg{fill:#F0EFF1;}</style>
 <g>
  <title>Layer 1</title>
  <path class="icon-canvas-transparent" d="m16,16l-16,0l0,-16l16,0l0,16z" id="canvas" fill="black"/>
  <path class="icon-vs-out" d="m4,15c-0.97,0 -2,-0.701 -2,-2l0,-10c0,-1.299 1.03,-2 2,-2l6.061,0l3.939,3.556l0,8.444c0,0.97 -0.701,2 -2,2l-8,0z" id="outline"/>
  <path class="icon-vs-bg" d="m9.641,2l-5.677,0c0,0 -0.964,0 -0.964,1c0,0.805 0,7.442 0,10c0,1 0.964,1 0.964,1s7,0 8,0s1.036,-1 1.036,-1l0,-8l-3.359,-3zm2.359,11l-8,0l0,-10l5,0l0,3l3,0l0,7z" id="iconBg"/>
  <path class="icon-vs-fg" d="m9,6l0,-3l-5,0l0,10l8,0l0,-7l-3,0zm0,2.181c-0.148,-0.108 -0.308,-0.194 -0.479,-0.26c-0.172,-0.066 -0.358,-0.098 -0.558,-0.098c-0.197,0 -0.382,0.035 -0.555,0.102c-0.172,0.068 -0.323,0.169 -0.45,0.299c-0.125,0.131 -0.225,0.293 -0.298,0.484c-0.072,0.192 -0.109,0.411 -0.109,0.658c0,0.229 0.032,0.436 0.097,0.621c0.063,0.184 0.155,0.34 0.275,0.468c0.121,0.128 0.267,0.226 0.438,0.297c0.171,0.069 0.366,0.104 0.584,0.104l0.271,-0.031l0.276,-0.081l0.268,-0.116l0.24,-0.147l0,0.901c-0.156,0.091 -0.338,0.163 -0.543,0.216c-0.205,0.054 -0.446,0.081 -0.725,0.081c-0.34,0 -0.646,-0.056 -0.919,-0.168c-0.273,-0.111 -0.505,-0.266 -0.697,-0.466c-0.192,-0.198 -0.339,-0.434 -0.442,-0.705c-0.103,-0.272 -0.155,-0.565 -0.155,-0.882c0,-0.373 0.056,-0.709 0.167,-1.011c0.112,-0.303 0.272,-0.56 0.482,-0.773c0.208,-0.214 0.462,-0.379 0.76,-0.497c0.299,-0.118 0.632,-0.177 1,-0.177l0.34,0.022l0.298,0.053l0.249,0.073l0.185,0.078l0,0.955z" id="iconFg" fill="black"/>
  <path class="icon-vs-bg" d="m8.457,11.599c-0.205,0.054 -0.446,0.081 -0.725,0.081c-0.34,0 -0.646,-0.056 -0.919,-0.168c-0.273,-0.112 -0.505,-0.267 -0.697,-0.467c-0.192,-0.198 -0.339,-0.434 -0.442,-0.705c-0.103,-0.272 -0.155,-0.565 -0.155,-0.882c0,-0.373 0.056,-0.709 0.167,-1.011c0.112,-0.303 0.272,-0.56 0.482,-0.773c0.208,-0.214 0.462,-0.379 0.76,-0.497c0.299,-0.118 0.632,-0.177 1,-0.177l0.34,0.022l0.298,0.053l0.249,0.073l0.185,0.078l0,0.955c-0.148,-0.108 -0.308,-0.194 -0.479,-0.26c-0.172,-0.066 -0.358,-0.098 -0.558,-0.098c-0.197,0 -0.382,0.035 -0.555,0.102c-0.172,0.068 -0.323,0.169 -0.45,0.299c-0.125,0.131 -0.225,0.293 -0.298,0.484c-0.072,0.192 -0.109,0.411 -0.109,0.658c0,0.229 0.032,0.436 0.097,0.621c0.063,0.184 0.155,0.34 0.275,0.468c0.121,0.128 0.267,0.226 0.438,0.297c0.171,0.069 0.366,0.104 0.584,0.104l0.271,-0.031l0.276,-0.081l0.268,-0.116l0.24,-0.147l0,0.901c-0.156,0.092 -0.338,0.164 -0.543,0.217z" id="colorImportance"/>
 </g>
 <g>
  <title>Layer 2</title>
  <path id="svg_1" fill="#99b8c4" d="m14.15686,14.37839l0.22865,-0.22289c1.05789,0.03322 1.07415,-0.00266 1.12056,-0.10929l0.29064,-0.69259l0.02168,-0.06644l-0.02371,-0.05747c-0.01253,-0.03056 -0.05081,-0.12125 -0.71136,-0.73877l0,-0.32487c0.76217,-0.72016 0.74523,-0.75704 0.70255,-0.86367l-0.29064,-0.6999c-0.04336,-0.1053 -0.05996,-0.14616 -1.1104,-0.11826l-0.22865,-0.23253a5.12347,5.02421 0 0 0 -0.03591,-1.02311l-0.02947,-0.06644l-0.75573,-0.32387c-0.11145,-0.04983 -0.1504,-0.06644 -0.86379,0.69425l-0.32079,-0.00465c-0.73439,-0.769 -0.76928,-0.75504 -0.88073,-0.7112l-0.70255,0.2787c-0.11009,0.04352 -0.14905,0.05913 -0.10636,1.10549l-0.22696,0.2219c-1.05755,-0.03322 -1.07381,0.00299 -1.11954,0.10929l-0.29132,0.69425l-0.02303,0.06644l0.02405,0.0578c0.01253,0.0299 0.04946,0.11958 0.71136,0.7381l0,0.32387c-0.76217,0.72016 -0.74523,0.75704 -0.70187,0.86367l0.28929,0.7019c0.04438,0.10729 0.05996,0.14549 1.11006,0.11859l0.22865,0.23253a5.14278,5.04315 0 0 0 0.03387,1.02145l0.02947,0.06644l0.76048,0.32587c0.11043,0.04551 0.14905,0.06145 0.8604,-0.69758l0.32079,0.00399c0.73541,0.76999 0.77301,0.75504 0.88073,0.71219l0.70086,-0.2777c0.11449,-0.04352 0.15311,-0.05846 0.10874,-1.10549zm-3.01277,-1.62535a1.25944,1.23504 0 1 1 1.64832,0.70356a1.27401,1.24933 0 0 1 -1.64832,-0.70356z"/>
 </g>
</svg>