<svg xmlns="http://www.w3.org/2000/svg" viewBox="0 0 16 16"><defs><style>.icon-canvas-transparent,.icon-vs-out{fill:#f6f6f6;}.icon-canvas-transparent{opacity:0;}.icon-vs-bg{fill:#424242;}.icon-vs-blue{fill:#1ba1e2;}.icon-vs-fg{fill:#f0eff1;}</style></defs><title>CheckboxList_16x</title><path class="icon-canvas-transparent" d="M16,16H0V0H16Z"/><path class="icon-vs-out" d="M6,5V6H16v4H6v1H16v4H6v1H0V0H6V1H16V5Z"/><rect class="icon-vs-bg" x="7" y="2" width="8" height="2"/><rect class="icon-vs-bg" x="7" y="12" width="8" height="2"/><rect class="icon-vs-bg" x="7" y="7" width="8" height="2"/><path class="icon-vs-blue" d="M1,1V5H5V1ZM4,4H2V2H4Z"/><path class="icon-vs-blue" d="M1,6v4H5V6ZM4,9H2V7H4Z"/><path class="icon-vs-blue" d="M1,11v4H5V11Zm3,3H2V12H4Z"/><path class="icon-vs-fg" d="M4,4H2V2H4ZM4,7H2V9H4Zm0,5H2v2H4Z"/></svg>