<svg xmlns="http://www.w3.org/2000/svg" width="16" height="16"><style type="text/css">.icon-canvas-transparent{opacity:0;fill:#F6F6F6;} .icon-vs-out{fill:#F6F6F6;} .icon-vs-bg{fill:#424242;} .icon-vs-fg{fill:#F0EFF1;}</style><path class="icon-canvas-transparent" d="M16 16h-16v-16h16v16z" id="canvas"/><path class="icon-vs-out" d="M15 12h-2v2h-2v1h-10v-10h1v-2h2v-2h10.977l.023 11z" id="outline"/><path class="icon-vs-bg" d="M2 14h8v-8h-8v8zm1-7h5.771l-3.292 3.293-1.147-1.147-.707.708 1.865 1.853 3.51-3.5v4.793h-6v-6zm11-5v9h-1v-8h-8v-1h9zm-11 2h9v9h-1v-8h-8v-1z" id="iconBg"/><path class="icon-vs-fg" d="M5.49 11.707l3.51-3.5v4.793h-6v-6h5.771l-3.292 3.293-1.147-1.147-.701.708 1.859 1.853z" id="iconFg"/></svg>