<svg xmlns="http://www.w3.org/2000/svg" viewBox="0 0 16 16" enable-background="new 0 0 16 16"><style type="text/css">.icon-canvas-transparent{opacity:0;fill:#F6F6F6;} .icon-vs-out{fill:#F6F6F6;} .icon-vs-bg{fill:#424242;} .icon-vs-fg{fill:#F0EFF1;}</style><path class="icon-canvas-transparent" d="M16 16h-16v-16h16v16z" id="canvas"/><path class="icon-vs-out" d="M4.562 13c-2.516 0-4.562-2.075-4.562-4.625s2.046-4.625 4.562-4.625l.105.001c.943-1.106 2.311-1.751 3.763-1.751 2.223 0 4.161 1.508 4.783 3.614 1.613.409 2.787 1.876 2.787 3.636 0 2.067-1.661 3.75-3.702 3.75h-7.736z" id="outline"/><path class="icon-vs-fg" d="M8.43 4c1.662 0 3.009 1.371 3.009 3.063v.437h.86c.95 0 1.719.783 1.719 1.75 0 .966-.77 1.75-1.719 1.75h-7.738c-1.424 0-2.579-1.175-2.579-2.625s1.155-2.625 2.579-2.625c.379 0 .736.088 1.06.238.43-1.159 1.52-1.988 2.809-1.988" id="iconFg"/><path class="icon-vs-bg" d="M8.43 4c1.662 0 3.009 1.371 3.009 3.063v.437h.86c.95 0 1.719.783 1.719 1.75 0 .966-.77 1.75-1.719 1.75h-7.738c-1.424 0-2.579-1.175-2.579-2.625s1.155-2.625 2.579-2.625c.379 0 .736.088 1.06.238.43-1.159 1.52-1.988 2.809-1.988m0-1c-1.334 0-2.57.695-3.302 1.797-.187-.031-.376-.047-.567-.047-1.963 0-3.561 1.626-3.561 3.625s1.598 3.625 3.561 3.625h7.737c1.49 0 2.702-1.234 2.702-2.75 0-1.488-1.166-2.703-2.617-2.749-.269-1.975-1.939-3.501-3.953-3.501z" id="iconBg"/></svg>