<svg xmlns="http://www.w3.org/2000/svg" width="16" height="16"><style type="text/css">.icon-canvas-transparent{opacity:0;fill:#F6F6F6;} .icon-vs-out{fill:#F6F6F6;} .icon-vs-bg{fill:#424242;} .icon-vs-fg{fill:#F0EFF1;}</style><path class="icon-canvas-transparent" d="M16 16h-16v-16h16v16z" id="canvas"/><path class="icon-vs-out" d="M16 3.556v8.444c0 .97-.701 2-2 2h-2.254c-.418 1.041-1.35 1.816-2.492 1.958l-.316.026h-5.695c-1.827-.033-3.243-1.517-3.243-3.378 0-1.225.644-2.341 1.648-2.933.355-1.19 1.239-2.101 2.352-2.473v-5.2c0-1.299 1.03-2 2-2h6.061l3.939 3.556z" id="outline"/><path class="icon-vs-bg" d="M9.804 10.8c-.073-1.126-.971-2.02-2.065-2.02-.236 0-.466.043-.682.123-.482-.551-1.171-.888-1.933-.888-1.313 0-2.404 1.019-2.607 2.349-.882.324-1.517 1.206-1.517 2.242 0 1.311.977 2.355 2.243 2.378h5.694l.193-.019c1.051-.13 1.855-1.064 1.855-2.186.001-.868-.482-1.62-1.181-1.979zm-.866 3.195v.005h-5.695v-.001c-.687-.012-1.243-.627-1.243-1.393 0-.767.565-1.391 1.261-1.391l.279.037c-.034-.146-.058-.294-.058-.451 0-1.003.735-1.813 1.642-1.813.819 0 1.493.665 1.618 1.531.154-.444.54-.761.997-.761.591 0 1.069.527 1.069 1.181 0 .246-.067.473-.182.662l.258-.036c.608 0 1.102.545 1.102 1.216 0 .654-.465 1.181-1.048 1.214zm6.062-9.995v8s-.035 1-1.035 1h-1.998l.02-.22c0-.268-.034-.528-.095-.78h2.108v-7h-3v-3h-5v5.139c-.285-.074-.577-.124-.876-.124l-.124.01v-5.025c0-1 .964-1 .964-1h5.677l3.359 3z" id="iconBg"/><path class="icon-vs-fg" d="M9.986 12.781c0 .653-.465 1.181-1.049 1.214v.005h-5.694v-.001c-.687-.012-1.243-.627-1.243-1.393 0-.767.565-1.391 1.261-1.391l.279.037c-.034-.146-.058-.294-.058-.451 0-1.003.735-1.813 1.642-1.813.819 0 1.493.665 1.618 1.531.154-.444.54-.761.997-.761.591 0 1.069.527 1.069 1.181 0 .246-.067.473-.182.662l.258-.036c.609 0 1.102.545 1.102 1.216zm1.014-7.781v-3h-5v5.139c.49.127.954.346 1.352.667l.387-.026c1.433 0 2.655 1.027 2.983 2.42.586.443.994 1.079 1.169 1.8h2.109v-7h-3z" id="iconFg"/></svg>