<svg xmlns="http://www.w3.org/2000/svg" width="16" height="16"><style type="text/css">.icon-canvas-transparent{opacity:0;fill:#F6F6F6;} .icon-vs-out{fill:#F6F6F6;} .icon-vs-bg{fill:#424242;} .icon-vs-fg{fill:#F0EFF1;}</style><path class="icon-canvas-transparent" d="M16 16h-16v-16h16v16z" id="canvas"/><path class="icon-vs-out" d="M16 10h-5.35l.073.227c.79.598 1.263 1.542 1.263 2.575 0 1.614-1.174 2.977-2.731 3.172l-.317.026h-5.695c-1.827-.033-3.243-1.515-3.243-3.372 0-1.041.469-1.999 1.228-2.628h-.228v-10h15v10z" id="outline"/><path class="icon-vs-bg" d="M9.804 10.8c-.073-1.126-.971-2.02-2.065-2.02-.236 0-.466.043-.682.123-.482-.551-1.171-.888-1.933-.888-1.313 0-2.404 1.019-2.607 2.349-.882.324-1.517 1.206-1.517 2.242 0 1.311.978 2.355 2.243 2.378h5.694l.193-.019c1.051-.13 1.855-1.064 1.855-2.186.001-.868-.482-1.62-1.181-1.979zm-.866 3.195v.005h-5.695v-.001c-.687-.012-1.243-.627-1.243-1.393 0-.767.564-1.391 1.261-1.391l.279.037c-.034-.146-.058-.294-.058-.451 0-1.003.735-1.814 1.642-1.814.819 0 1.493.665 1.618 1.531.154-.444.54-.761.997-.761.591 0 1.069.527 1.069 1.181 0 .246-.067.473-.182.662l.258-.036c.608 0 1.102.545 1.102 1.216 0 .655-.465 1.182-1.048 1.215zm-6.938-12.995v7.898c.637-1.122 1.797-1.858 3.124-1.858.813 0 1.6.282 2.231.792l.384-.025c.962 0 1.822.469 2.388 1.193h4.873v-8h-13zm6 2h-3v2h3v1h-4v-4h4v1zm2 3h-1v-1h1v1zm0-2h-1v-1h1v1zm2.6 2l-1.6-4h1l1.6 4h-1z" id="iconBg"/><path class="icon-vs-fg" d="M9.986 12.781c0 .653-.465 1.181-1.049 1.214v.005h-5.694v-.001c-.687-.012-1.243-.627-1.243-1.393 0-.767.564-1.391 1.261-1.391l.279.037c-.034-.146-.058-.294-.058-.451 0-1.003.735-1.814 1.642-1.814.819 0 1.493.665 1.618 1.531.154-.444.54-.761.997-.761.591 0 1.069.527 1.069 1.181 0 .246-.067.473-.182.662l.258-.036c.609.001 1.102.546 1.102 1.217zm-.986-7.781v1h1v-1h-1zm-4 0v-2h3v-1h-4v4h4v-1h-3zm4-1h1v-1h-1v1zm2-2l1.6 4h1l-1.6-4h-1z" id="iconFg"/></svg>