<svg xmlns="http://www.w3.org/2000/svg" width="16" height="16"><style type="text/css">.icon-canvas-transparent{opacity:0;fill:#F6F6F6;} .icon-vs-out{fill:#F6F6F6;} .icon-vs-bg{fill:#424242;} .icon-vs-fg{fill:#F0EFF1;}</style><path class="icon-canvas-transparent" d="M16 16h-16v-16h16v16z" id="canvas"/><path class="icon-vs-out" d="M16 9.036c-.083-1.231-.766-2.341-1.81-2.953-.297-1.709-1.777-3.012-3.555-3.012-.308 0-.613.04-.909.117-.815-.762-1.882-1.188-3.024-1.188-2.085 0-3.845 1.429-4.335 3.416-1.42.608-2.364 2.013-2.364 3.621 0 1.234.588 2.332 1.489 3.057l-1.492 1.492v.828l1.586 1.586h.828l2.137-2.137c.311.091.627.149.949.149.964.001 1.839-.012 2.472-1.012h4.466c.135 0 .272-.026.314-.04 1.8-.197 3.16-1.688 3.247-3.495v-.429z" id="outline"/><path class="icon-vs-bg" d="M14.894 9.286c0 1.381-.908 2.534-2.25 2.68l-.206.034h-3.775c.148 0 .243-1 .291-1h3.046c.145 0 .292-.013.438-.033l.126-.022.301-.076.072-.024c.422-.152.775-.438.947-.917l.009-.025.07-.262c.022-.122.037-.247.037-.374 0-.933-.632-1.69-1.564-1.69l-.034.005-.044-.005-.311.042c.171-.261.273-.573.273-.909 0-.906-.733-1.641-1.638-1.641l-.019.003-.029-.003c-.677 0-1.246.429-1.485 1.03-.13-.764-.6-1.409-1.249-1.774-.354-.204-.761-.325-1.198-.325l-.01.001-.011-.001c-1.387 0-2.512 1.127-2.512 2.519 0 .215.036.418.086.617-.115-.024-.231-.044-.356-.044l-.038.004-.032-.004-.24.032-.084.011-.238.075-.16.063-.117.065c-.586.329-.988.957-.988 1.687l.011.122.007.077.037.218.043.258.009-.061.005.017c-.068.272-.116.551-.116.844 0 .278.039.551.106.819-.669-.54-1.109-1.36-1.109-2.282 0-1.393.954-2.563 2.239-2.861.174-1.782 1.641-3.176 3.437-3.176 1.109 0 2.074.524 2.71 1.361.36-.188.705-.29 1.132-.29 1.439 0 2.487 1.187 2.487 2.644v.025c1 .371 1.894 1.376 1.894 2.546zm-9.394-1.286c-1.381 0-2.5 1.119-2.5 2.5 0 .432.12.833.313 1.188l-2.313 2.312 1 1 2.313-2.313c.354.193.755.313 1.187.313 1.381 0 2.5-1.119 2.5-2.5s-1.119-2.5-2.5-2.5zm0 1c.828 0 1.5.672 1.5 1.5s-.672 1.5-1.5 1.5-1.5-.672-1.5-1.5.672-1.5 1.5-1.5z" id="iconBg"/><path class="icon-vs-fg" d="M14 9.267c0 .905-.576 1.733-2 1.733h-3.028c.02 0 .047-.322.047-.479 0-1.93-1.598-3.521-3.561-3.521-1.666 0-3.358 1.359-3.358 2.7-.412-1.45.665-2.608 1.73-2.608.149 0 .29.021.427.052-.052-.202-.088-.408-.088-.625 0-1.392 1.125-2.519 2.512-2.519 1.254 0 2.285.922 2.476 2.125.237-.616.827-1.057 1.526-1.057.904 0 1.637.734 1.637 1.641 0 .34-.103.656-.278.919.125-.031.256-.052.393-.052.933 0 1.565.758 1.565 1.691zm-10 1.233c0 .828.672 1.5 1.5 1.5s1.5-.672 1.5-1.5-.672-1.5-1.5-1.5-1.5.672-1.5 1.5z" id="iconFg"/></svg>