<svg xmlns="http://www.w3.org/2000/svg" width="16" height="16"><style type="text/css">.icon-canvas-transparent{opacity:0;fill:#F6F6F6;} .icon-vs-out{fill:#F6F6F6;} .icon-vs-bg{fill:#424242;} .icon-vs-fg{fill:#F0EFF1;}</style><path class="icon-canvas-transparent" d="M16 16h-16v-16h16v16z" id="canvas"/><path class="icon-vs-out" d="M16 0v15h-15v-9h6v-6h9z" id="outline"/><path class="icon-vs-bg" d="M8 1v6h-6v7h13v-13h-7zm0 12h-5v-5h5v5zm6 0h-5v-5h5v5zm0-6h-5v-5h5v5z" id="iconBg"/><path class="icon-vs-fg" d="M8 13h-5v-5h5v5zm6-5h-5v5h5v-5zm0-6h-5v5h5v-5z" id="iconFg"/></svg>