<svg xmlns="http://www.w3.org/2000/svg" viewBox="0 0 16 16"><style>.st0{fill:#f6f6f6}.st1{fill:#424242}.st2{fill:#f0eff1}</style><path class="st0" d="M16 0H5v6.352A3.451 3.451 0 0 0 3.5 6a3.498 3.498 0 1 0-2.001 6.369V14a2 2 0 0 0 4 0v-1H16V0z" id="outline"/><path class="st1" d="M6.001 1v6.06C6.617 7.691 7 8.551 7 9.5c0 .926-.378 1.782-.999 2.423V12h9V1h-9zm1 10V2h7v9h-7zm5-3h-4V7h4v1zm-4 1h3v1h-3V9zm3-4v1h-3V5h3zM6 9.5a2.498 2.498 0 0 1-1.501 2.289V14a1 1 0 1 1-2 0v-2.211A2.501 2.501 0 0 1 1 9.5c0-1.024.618-1.902 1.499-2.289V10h2V7.211A2.498 2.498 0 0 1 6 9.5zM13.001 4h-5V3h5v1zm-1 2V5h1v1h-1z" id="icon_x5F_bg"/><path class="st2" d="M7.001 2v9h7V2h-7zm4 3v1h-3V5m3 5h-3V9h3v1zm1-2h-4V7h4v1zm1-2h-1V5h1v1zm-5-2V3h5v1h-5z" id="icon_x5F_fg"/></svg>