<svg xmlns="http://www.w3.org/2000/svg" viewBox="0 0 16 16"><style>.st0{opacity:0}.st0,.st1{fill:#f6f6f6}.st2{fill:#424242}.st3{fill:#f0eff1}</style><g id="outline"><path class="st0" d="M0 0h16v16H0z"/><path class="st1" d="M12.061 0H6c-.97 0-2 .701-2 2v1.767l-1.335.474A4.003 4.003 0 0 0 0 8c0 1.436.78 2.746 2 3.451V14c0 1.102.897 2 2 2s2-.898 2-2h8c1.299 0 2-1.03 2-2V3.556L12.061 0z"/></g><g id="icon_x5F_bg"><path class="st2" d="M11.641 1H5.964S5 1 5 2v2.123l.335.119c.235.083.455.193.665.315V2h5v3h3v7H6v1h7.965c1 0 1.035-1 1.035-1V4l-3.359-3z"/><path class="st2" d="M5 5.184V8H3V5.184A2.99 2.99 0 0 0 1 8a2.99 2.99 0 0 0 2 2.816V14a1 1 0 1 0 2 0v-3.184A2.992 2.992 0 0 0 7 8a2.992 2.992 0 0 0-2-2.816z"/></g><path class="st3" d="M11 5V2H6v2.557C7.217 5.264 8 6.567 8 8c0 1.435-.78 2.745-2 3.451V12h8V5h-3z" id="icon_x5F_fg"/></svg>