<svg xmlns="http://www.w3.org/2000/svg" viewBox="0 0 16 16"><style>.st0{opacity:0}.st0,.st1{fill:#f6f6f6}.st2{fill:#424242}.st3{fill:#f0eff1}</style><g id="outline"><path class="st0" d="M0 0h16v16H0z"/><path class="st1" d="M12.375 1H7.999C7.029 1 6 1.701 6 3v2H3.999C3.029 5 2 5.701 2 7v5c0 1.299 1.029 2 2 2h4c1.299 0 2-1.03 2-2v-2h2c1.299 0 2-1.03 2-2V3.062L12.375 1z"/></g><g id="icon_x5F_bg"><path class="st2" d="M7.313 6h-3.35S3 6 3 7v5c0 1 .964 1 .964 1h4C8.964 13 9 12 9 12V8.136L7.313 6zM8 10v2H4V7h3v1h1v2zM11.313 2h-3.35S7 2 7 3v2h1V3h3v1h1v4h-2v1h1.964C12.964 9 13 8 13 8V4.136L11.313 2z"/></g><g id="icon_x5F_fg"><path class="st3" d="M4 7h3v1h1v4H4zM11 4V3H8v2h.375L10 7.062V8h2V4z"/></g></svg>