<svg xmlns="http://www.w3.org/2000/svg" viewBox="0 0 16 16"><style>.st0{opacity:0}.st0,.st1{fill:#f6f6f6}.st2{fill:#9b4f96}</style><g id="outline"><path class="st0" d="M0 0h16v16H0z"/><path class="st1" d="M15 7h-2V5H7V3H3v2H1v4h2v2h6v2h4v-2h2z"/></g><g id="color_x5F_importance"><path class="st2" d="M6 6V4H4v2H2v2h2v2h2V8h2V6zM14 8h-2V6h-2v2H8v2h2v2h2v-2h2z"/></g>
 <g>
  <title>Layer 2</title>
  <path id="svg_1" fill="#99b8c4" d="m14.15686,14.37839l0.22865,-0.22289c1.05789,0.03322 1.07415,-0.00266 1.12056,-0.10929l0.29064,-0.69259l0.02168,-0.06644l-0.02371,-0.05747c-0.01253,-0.03056 -0.05081,-0.12125 -0.71136,-0.73877l0,-0.32487c0.76217,-0.72016 0.74523,-0.75704 0.70255,-0.86367l-0.29064,-0.6999c-0.04336,-0.1053 -0.05996,-0.14616 -1.1104,-0.11826l-0.22865,-0.23253a5.12347,5.02421 0 0 0 -0.03591,-1.02311l-0.02947,-0.06644l-0.75573,-0.32387c-0.11145,-0.04983 -0.1504,-0.06644 -0.86379,0.69425l-0.32079,-0.00465c-0.73439,-0.769 -0.76928,-0.75504 -0.88073,-0.7112l-0.70255,0.2787c-0.11009,0.04352 -0.14905,0.05913 -0.10636,1.10549l-0.22696,0.2219c-1.05755,-0.03322 -1.07381,0.00299 -1.11954,0.10929l-0.29132,0.69425l-0.02303,0.06644l0.02405,0.0578c0.01253,0.0299 0.04946,0.11958 0.71136,0.7381l0,0.32387c-0.76217,0.72016 -0.74523,0.75704 -0.70187,0.86367l0.28929,0.7019c0.04438,0.10729 0.05996,0.14549 1.11006,0.11859l0.22865,0.23253a5.14278,5.04315 0 0 0 0.03387,1.02145l0.02947,0.06644l0.76048,0.32587c0.11043,0.04551 0.14905,0.06145 0.8604,-0.69758l0.32079,0.00399c0.73541,0.76999 0.77301,0.75504 0.88073,0.71219l0.70086,-0.2777c0.11449,-0.04352 0.15311,-0.05846 0.10874,-1.10549l-0.00002,0zm-3.01277,-1.62535a1.25944,1.23504 0 1 1 1.64832,0.70356a1.27401,1.24933 0 0 1 -1.64832,-0.70356z"/>
 </g>
</svg>