<svg xmlns="http://www.w3.org/2000/svg" viewBox="0 0 16 16"><style>.st0{opacity:0}.st0,.st1{fill:#f6f6f6}.st2{fill:#424242}.st3{fill:#9b4f96}.st4{fill:#f0eff1}</style><g id="outline"><path class="st0" d="M0 0h16v16H0z"/><path class="st1" d="M4 15c-.97 0-2-.701-2-2V3c0-1.299 1.03-2 2-2h6.061L14 4.556V13c0 .97-.701 2-2 2H4z"/></g><path class="st2" d="M9.641 2H3.964S3 2 3 3v10c0 1 .965 1 .965 1h8c1 0 1.035-1 1.035-1V5L9.641 2zM12 13H4V3h5v3h3v7z" id="icon_x5F_bg"/><path class="st3" d="M7 8V6H6v5h1V9h2v2h1V8H9z" id="color_x5F_importance"/><path class="st4" d="M9 6V3H4v10h8V6H9zm1 3v2H9V9H7v2H6V6h1v2h3v1z" id="icon_x5F_fg"/></svg>