<svg xmlns="http://www.w3.org/2000/svg" viewBox="0 0 16 16"><style>.icon-canvas-transparent{opacity:0;fill:#f6f6f6}.icon-vs-out{fill:#f6f6f6}.icon-vs-bg{fill:#424242}.icon-vs-fg{fill:#f0eff1}</style><path class="icon-canvas-transparent" d="M16 16H0V0h16v16z" id="canvas"/><path class="icon-vs-out" d="M4 16v-3H3v-2H0V4h3V3h2V0h7v3h1v2h3v7h-3v1h-2v3H4z" id="outline"/><path class="icon-vs-fg" d="M5 5v6h6V5H5zm5 5H6V6h4v4z" id="iconFg"/><path class="icon-vs-bg" d="M7 3H6V1h1v2zm2-2H8v2h1V1zm2 0h-1v2h1V1zM6 13H5v2h1v-2zm2 0H7v2h1v-2zm2 0H9v2h1v-2zm5-6V6h-2v1h2zm0 2V8h-2v1h2zm0 2v-1h-2v1h2zM3 6V5H1v1h2zm0 2V7H1v1h2zm0 2V9H1v1h2zm1-6v8h8V4H4zm7 7H5V5h6v6zm-1-5H6v4h4V6z" id="iconBg"/></svg>