<svg xmlns="http://www.w3.org/2000/svg" width="16" height="16"><style type="text/css">.icon-canvas-transparent{opacity:0;fill:#F6F6F6;} .icon-vs-out{fill:#F6F6F6;} .icon-vs-bg{fill:#424242;} .icon-vs-fg{fill:#F0EFF1;} .icon-vs-action-blue{fill:#00539C;}</style><path class="icon-canvas-transparent" d="M16 16h-16v-16h16v16z" id="canvas"/><path class="icon-vs-out" d="M12.414 2h-4.414v-1.414l-2 2v-2.586h-4v2.586l-2-2v4.828l4 4v4.586c0 1.299 1.012 2 1.965 2h8c1.442 0 2.007-1.175 2.035-2v-8.414l-3.586-3.586z" id="outline"/><path class="icon-vs-bg" d="M15 6v8s-.035 1-1.035 1h-8s-.965 0-.965-1v-5.586l1-1v6.586h8v-7h-3v-3h-3v-1h4l3 3z" id="iconBg"/><path class="icon-vs-fg" d="M14 7v7h-8v-6.586l2-2v-1.414h3v3h3z" id="iconFg"/><path class="icon-vs-action-blue" d="M1 3l2 2v-4h2v4l2-2v2l-3 3-3-3v-2z" id="colorAction"/></svg>