<svg xmlns="http://www.w3.org/2000/svg" viewBox="0 0 16 16"><style>.st0{fill:#f6f6f6}.st1{fill:#424242}.st2{fill:#00539c}</style><path class="st0" d="M7 10.783v1.808c0 .157-.006.328-.063.511-.072.236-.023.491-.023.756 0 .277.087.543.173.791a2.051 2.051 0 0 0 1.168 1.194c.162.065.34.119.524.157h5.048c.319-.041.621-.136.881-.294.309-.186.568-.456.771-.776.181-.281.316-.618.404-.991a4.823 4.823 0 0 0 .02-2.021 3.047 3.047 0 0 0-.344-.91 2.103 2.103 0 0 0-.713-.721c-.322-.209-.698-.287-1.115-.287H14V8h-3v-.583L3.423 0h-.837L0 2.586v.759l7.228 7.4-.228.038z" id="outline"/><g id="icon_x5F_bg"><path class="st1" d="M10.63 11.361a1.07 1.07 0 0 0-.424-.295 1.643 1.643 0 0 0-.608-.102c-.119 0-.241.012-.368.033a3.196 3.196 0 0 0-.672.195 1.375 1.375 0 0 0-.213.113v.768c.158-.131.341-.234.544-.313.204-.078.413-.117.627-.117.213 0 .377.063.494.186.116.125.174.324.174.6l-1.03.154a1.631 1.631 0 0 0-.525.152 1.08 1.08 0 0 0-.562.66 1.568 1.568 0 0 0 .007.925.945.945 0 0 0 .568.595c.139.058.297.085.478.085.229 0 .431-.053.604-.16a1.3 1.3 0 0 0 .439-.463h.014v.529h.785v-2.438c0-.238-.027-.451-.083-.637a1.289 1.289 0 0 0-.249-.47zm-.446 2.02c0 .131-.021.252-.059.365a.897.897 0 0 1-.165.295.76.76 0 0 1-.593.271.682.682 0 0 1-.242-.041.489.489 0 0 1-.302-.285.588.588 0 0 1-.041-.219.96.96 0 0 1 .027-.232.435.435 0 0 1 .098-.18.541.541 0 0 1 .195-.133c.083-.033.189-.061.32-.078l.761-.109v.346zM12.71 11.656h-.013V9H12v5.887h.697v-.484h.013c.044.082.095.158.151.229.057.07.119.133.191.185a.835.835 0 0 0 .238.121.932.932 0 0 0 .292.043c.231 0 .434-.053.609-.16.176-.106.323-.254.443-.443a2.18 2.18 0 0 0 .273-.672c.062-.261.093-.54.093-.845a3.54 3.54 0 0 0-.074-.734 2.037 2.037 0 0 0-.228-.611 1.221 1.221 0 0 0-.394-.416 1.037 1.037 0 0 0-.573-.153c-.123 0-.234.018-.336.052a1.024 1.024 0 0 0-.278.146 1.222 1.222 0 0 0-.226.223 1.957 1.957 0 0 0-.181.288zm.467.082c.1-.055.21-.082.331-.082a.646.646 0 0 1 .571.32c.066.105.116.23.15.377.034.146.052.311.052.494 0 .234-.02.441-.06.621-.039.18-.095.328-.168.445a.747.747 0 0 1-.264.266.677.677 0 0 1-.651.016.74.74 0 0 1-.237-.207.983.983 0 0 1-.154-.307 1.257 1.257 0 0 1-.057-.381v-.506c0-.17.021-.326.061-.465.04-.139.096-.258.168-.359a.79.79 0 0 1 .258-.232z"/></g><g id="color_x5F_action"><path transform="rotate(-45.001 6 6)" class="st2" d="M4.586 3.171h2.828v5.656H4.586z"/><path transform="rotate(-45.001 2.5 2.5)" class="st2" d="M1.086 1.793h2.828v1.414H1.086z"/><path class="st2" d="M10 8v1.999L8 10"/></g></svg>