<svg xmlns="http://www.w3.org/2000/svg" viewBox="0 0 16 16"><style>.st0{fill:#f6f6f6}.st1{fill:#424242}.st2{fill:#f0eff1}.st3{fill:#00539c}</style><path class="st0" d="M16 11.334L12.5 16H0V6h12.5l3.5 4.666v.668z" id="outline"/><path class="st1" d="M12 7H1v8h11l3-4-3-4zm-1 5a1 1 0 1 1 0-2 1 1 0 1 1 0 2z" id="icon_x5F_bg"/><path class="st2" d="M12 11a1 1 0 1 1-2 0 1 1 0 1 1 2 0z" id="icon_x5F_fg"/><g id="not_x5F_fg"><path class="st0" d="M7 10.438V0H2v10.422l2.5 3.245z"/><path class="st3" d="M3 1h3v1.969H3zM3 4h3v5H3zM4.5 12L6 10H3z"/></g></svg>