<svg xmlns="http://www.w3.org/2000/svg" width="16" height="16"><style type="text/css">.icon-canvas-transparent{opacity:0;fill:#F6F6F6;} .icon-vs-out_x0020_3{fill:#F6F6F6;} .icon-vs-bg_x0020_2{fill:#424242;} .icon-vs-fg_x0020_2{fill:#F0EFF1;} .icon-vs-action-blue{fill:#00539C;}</style><path class="icon-canvas-transparent" d="M16 16h-16v-16h16v16z" id="canvas"/><path class="icon-vs-out_x0020_3" d="M14 4.556v8.444c0 .97-.701 2-2 2h-8c-.97 0-2-.701-2-2v-4.344c-1.185-.562-2.013-1.76-2.013-3.156 0-1.45.886-2.696 2.145-3.227.152-.417.426-.738.765-.951l-1.314-1.322h4.82l.994 1h2.663l3.94 3.556z" id="outline"/><path class="icon-vs-bg_x0020_2" d="M13 5v8s-.035 1-1.035 1h-8s-.965 0-.965-1v-4.049c.161.022.32.049.487.049h.513v4h8v-7h-3v-1.584l.901-.896-1.51-1.52h1.25l3.359 3z" id="iconBg"/><path class="icon-vs-fg_x0020_2" d="M12 6v7h-8v-4h.987v-2h1.413l2.6-2.584v1.584h3z" id="iconFg"/><g id="colorAction"><path class="icon-vs-action-blue" d="M3.487 8c-1.381 0-2.5-1.119-2.5-2.5s1.119-2.5 2.5-2.5h2.488l-1.988-2h2l2.5 2.516-2.5 2.484h-2l2.013-2h-2.513c-.827 0-1.5.673-1.5 1.5s.673 1.5 1.5 1.5h.5v1h-.5z"/></g></svg>