<svg t="1591800851181" class="icon" viewBox="0 0 1024 1024" version="1.1" xmlns="http://www.w3.org/2000/svg" p-id="1699" width="16" height="16"><path d="M512 209.403C310.268 209.403 137.99 334.88 68.191 512 137.99 689.12 310.268 814.597 512 814.597c201.933 0 374.01-125.477 443.809-302.597C886.009 334.88 713.933 209.403 512 209.403z m0 504.329c-111.355 0-201.732-90.376-201.732-201.732S400.644 310.268 512 310.268 713.732 400.644 713.732 512 623.355 713.732 512 713.732z m0-322.77c-66.773 0-121.039 54.265-121.039 121.038S445.227 633.039 512 633.039 633.039 578.773 633.039 512 578.773 390.961 512 390.961z" fill="#e6e6e6" p-id="1700"></path></svg>