<svg xmlns="http://www.w3.org/2000/svg" viewBox="0 0 16 16"><style>.st0{opacity:0;fill:#f6f6f6}.st1{opacity:.01}.st1,.st2{fill:#f6f6f6}.st3{fill:#00539c}.st4{fill:#388a34}.st5{fill:#f0eff1}</style><g id="outline"><path class="st0" d="M0 0h16v16H0z"/><path class="st1" d="M0 0h16v16H0z"/><path class="st2" d="M14 10.018V8h-2.789L12 7.605V2.369L7.263 0h-.524L0 3.369v5.236L4.789 11h.42l4.809-2.404v1.422H8V14h2.018v2H14v-2h2v-3.982z"/></g><path class="st3" d="M1 4v4l4 2 6-3V3L7 1 1 4zm4 1L3 4l4-2 2 1-4 2z" id="icon_x5F_bg"/><g id="color_x5F_action"><path id="Foreground_2_" class="st4" d="M15 11h-2V9h-2v2H9v2h2v2h2v-2h2z"/></g><path class="st5" d="M3 4l2 1 4-2-2-1z" id="icon_x5F_fg"/></svg>