<svg xmlns="http://www.w3.org/2000/svg" viewBox="0 0 16 16"><style>.st0{fill:#f6f6f6}.st1{fill:#424242}.st2{fill:#f0eff1}</style><path class="st0" d="M13.547 0H8c-.969 0-2 .701-2 2H2c-.969 0-2 .701-2 2v8c0 1.299 1.031 2 2 2h2c0 1.299 1.031 2 2 2h6c1.299 0 2-1.03 2-2v-2c1.299 0 2-1.03 2-2V2.062L13.547 0z" id="outline"/><g id="icon_x5F_bg"><path class="st1" d="M10.625 5h-4.66S5 5 5 6v8c0 1 .965 1 .965 1h6c1 0 1.035-1 1.035-1V7.137L10.625 5zM12 9v5H6V6h4v2h2v1z"/><path class="st1" d="M4 12H2V4h5.736L6.625 3h-4.66S1 3 1 4v8c0 1 .965 1 .965 1H4v-1zM12.625 1h-4.66S7 1 7 2h.547L8 2.381V2h4v2h2v6.995c.962-.025 1-.995 1-.995V3.137L12.625 1z"/></g><g id="icon_x5F_fg"><path class="st2" d="M6 6h4v1.96l2 .036V14H6zM4 6c0-1.299 1.031-2 2-2H2v8h2V6zM12 3.96V2H8v.381L9.927 4h1.62L14 6.062V3.996z"/></g></svg>