<svg width="32" height="32" xmlns="http://www.w3.org/2000/svg" xmlns:svg="http://www.w3.org/2000/svg">
 <title>file_type_c</title>
 <g>
  <title>Layer 1</title>
  <path d="m10.676,15.973a10.052,10.052 0 0 0 1.175,5.151a5.446,5.446 0 0 0 6.306,2.408a4.284,4.284 0 0 0 3.09,-3.6c0.107,-0.6 0.109,-0.61 0.109,-0.61c1.737,0.251 4.537,0.658 6.274,0.906l-0.11,0.44a11.256,11.256 0 0 1 -2.7,5.39a9.439,9.439 0 0 1 -5.366,2.688a14.61,14.61 0 0 1 -8.277,-0.819a10.151,10.151 0 0 1 -5.777,-6.24a16.225,16.225 0 0 1 0.019,-11.45a10.538,10.538 0 0 1 8.963,-7.054a13.353,13.353 0 0 1 6.666,0.555a9.571,9.571 0 0 1 6.167,6.9c0.094,0.352 0.114,0.417 0.114,0.417c-1.932,0.351 -4.319,0.8 -6.238,1.215c-0.362,-1.915 -1.265,-3.428 -3.2,-3.9a5.263,5.263 0 0 0 -6.616,3.57a10.49,10.49 0 0 0 -0.385,1.439a12.31,12.31 0 0 0 -0.214,2.594z" fill="#005f91" id="svg_1"/>
  <path id="svg_2" fill="#99b8c4" d="m27.55946,28.08713l0.45072,-0.443c2.08532,0.06602 2.11737,-0.00528 2.20885,-0.21721l0.57291,-1.37654l0.04273,-0.13204l-0.04674,-0.11422c-0.02471,-0.06074 -0.10016,-0.24098 -1.40223,-1.46831l0,-0.64569c1.50239,-1.43134 1.469,-1.50462 1.38487,-1.71655l-0.57291,-1.39107c-0.08547,-0.20929 -0.11819,-0.29049 -2.18882,-0.23504l-0.45072,-0.46215a10.0994,9.9857 0 0 0 -0.07078,-2.03345l-0.05809,-0.13204l-1.4897,-0.64371c-0.21968,-0.09903 -0.29647,-0.13204 -1.70271,1.37984l-0.63234,-0.00924c-1.44764,-1.52839 -1.51641,-1.50066 -1.73609,-1.41351l-1.38487,0.55392c-0.21701,0.08649 -0.2938,0.11752 -0.20967,2.19718l-0.44738,0.44102c-2.08465,-0.06602 -2.1167,0.00594 -2.20684,0.21721l-0.57425,1.37984l-0.04541,0.13204l0.04741,0.11488c0.02471,0.05942 0.09749,0.23768 1.40223,1.46699l0,0.64371c-1.50239,1.43134 -1.469,1.50462 -1.38353,1.71655l0.57024,1.39503c0.08747,0.21325 0.11819,0.28917 2.18815,0.2357l0.45072,0.46215a10.13746,10.02333 0 0 0 0.06677,2.03015l0.05809,0.13204l1.49905,0.64767c0.21768,0.09045 0.2938,0.12214 1.69603,-1.38644l0.63234,0.00792c1.44964,1.53037 1.52376,1.50066 1.73609,1.41549l1.38153,-0.55194c0.22569,-0.08649 0.30181,-0.1162 0.21434,-2.19718zm-5.93878,-3.23042a2.48262,2.45467 0 1 1 3.24917,1.39833a2.51133,2.48306 0 0 1 -3.24917,-1.39833z"/>
 </g>
</svg>