<svg xmlns="http://www.w3.org/2000/svg" viewBox="0 0 16 16"><style>.st0{opacity:0}.st0,.st1{fill:#f6f6f6}.st2{fill:#424242}.st3{fill:#e51400}.st4{fill:#fff}.st5{fill:#f0eff1}</style><g id="outline"><path class="st0" d="M0 0h16v16H0z"/><path class="st1" d="M12 7.275V3.556L8.061 0H2c-.97 0-2 .701-2 2v10c0 1.299 1.03 2 2 2h4.76A4.5 4.5 0 0 0 15 11.5c0-1.957-1.256-3.605-3-4.225z"/></g><path class="st2" d="M6.05 12H2V2h5v3h3v2.05c.166-.019.329-.05.5-.05s.334.032.5.05V4L7.641 1H1.964S1 1 1 2v10c0 1 .965 1 .965 1h4.311a4.419 4.419 0 0 1-.226-1z" id="icon_x5F_bg"/><path class="st3" d="M10.5 8a3.5 3.5 0 1 0 0 7 3.5 3.5 0 0 0 0-7zM8 12v-1h5v1H8z" id="color_x5F_importance"/><g id="icon_x5F_fg"><path class="st4" d="M13 12H8v-1h5v1z"/><path class="st5" d="M6 11.5c0-2.315 1.753-4.198 4-4.45V5H7V2H2v10h4.05c-.018-.166-.05-.329-.05-.5z"/></g></svg>