<svg xmlns="http://www.w3.org/2000/svg" viewBox="0 0 32 32">
<title>file_type_cpp</title>
<path d="M14.742,24.047a10.242,10.242,0,0,1-4.673.919A7.628,7.628,0,0,1,4.155,22.62,8.876,8.876,0,0,1,2,16.369,9.476,9.476,0,0,1,4.422,9.621a8.216,8.216,0,0,1,6.285-2.588,11.151,11.151,0,0,1,4.035.641v3.761A6.839,6.839,0,0,0,11,10.395,4.813,4.813,0,0,0,7.288,11.93a5.9,5.9,0,0,0-1.413,4.159A5.8,5.8,0,0,0,7.209,20.1a4.57,4.57,0,0,0,3.59,1.493,7.319,7.319,0,0,0,3.943-1.113Z" style="fill:#984c93"/><polygon points="17.112 14.829 17.112 12.485 19.456 12.485 19.456 14.829 21.8 14.829 21.8 17.172 19.456 17.172 19.456 19.515 17.112 19.515 17.112 17.172 14.77 17.172 14.77 14.828 17.112 14.829" style="fill:#984c93"/><polygon points="25.313 14.829 25.313 12.485 27.657 12.485 27.657 14.829 30 14.829 30 17.172 27.657 17.172 27.657 19.515 25.313 19.515 25.313 17.172 22.971 17.172 22.971 14.828 25.313 14.829" style="fill:#984c93"/>
<path d="m28.29154,28.81921l0.45072,-0.443c2.08532,0.06602 2.11737,-0.00528 2.20885,-0.21721l0.57291,-1.37654l0.04273,-0.13204l-0.04674,-0.11422c-0.02471,-0.06074 -0.10016,-0.24098 -1.40223,-1.46831l0,-0.64569c1.50239,-1.43134 1.469,-1.50462 1.38487,-1.71655l-0.57291,-1.39107c-0.08547,-0.20929 -0.11819,-0.29049 -2.18882,-0.23504l-0.45072,-0.46215a10.0994,9.9857 0 0 0 -0.07078,-2.03345l-0.05809,-0.13204l-1.4897,-0.64371c-0.21968,-0.09903 -0.29647,-0.13204 -1.70271,1.37984l-0.63234,-0.00924c-1.44764,-1.52839 -1.51641,-1.50066 -1.73609,-1.41351l-1.38487,0.55392c-0.21701,0.08649 -0.2938,0.11752 -0.20967,2.19718l-0.44738,0.44102c-2.08465,-0.06602 -2.1167,0.00594 -2.20684,0.21721l-0.57425,1.37984l-0.04541,0.13204l0.04741,0.11488c0.02471,0.05942 0.09749,0.23768 1.40223,1.46699l0,0.64371c-1.50239,1.43134 -1.469,1.50462 -1.38353,1.71655l0.57024,1.39503c0.08747,0.21325 0.11819,0.28917 2.18815,0.2357l0.45072,0.46215a10.13746,10.02333 0 0 0 0.06677,2.03015l0.05809,0.13204l1.49905,0.64767c0.21768,0.09045 0.2938,0.12214 1.69603,-1.38644l0.63234,0.00792c1.44964,1.53037 1.52376,1.50066 1.73609,1.41549l1.38153,-0.55194c0.22569,-0.08649 0.30181,-0.1162 0.21434,-2.19718l0.00001,0zm-5.93878,-3.23042a2.48262,2.45467 0 1 1 3.24917,1.39833a2.51133,2.48306 0 0 1 -3.24917,-1.39833z" fill="#99b8c4" id="svg_2"/>
</svg>