<svg xmlns="http://www.w3.org/2000/svg" viewBox="0 0 16 16"><style>.st0{fill:#f6f6f6}.st1{fill:#424242}.st2{fill:#f0eff1}</style><path class="st0" d="M14 0H4.5a2.505 2.505 0 0 0-2.373 1.713L1 .586v4.328L3.086 7H1.998C1.029 7 0 7.701 0 9v5c0 1.299 1.029 2 2 2h4c1.299 0 2-1.03 2-2V9.062l-.229-.291L8 9h8V2l-2-2zM7 7.793L6.375 7H3.914L6 4.914V3h1v4.793z" id="outline"/><g id="icon_x5F_bg"><path class="st1" d="M14 3h1v1h-1zM10 1h1v1h-1zM14 5h1v1h-1zM8 1h1v1H8zM8 3h1v1H8zM8 5h1v1H8zM14 7h1v1h-1zM10 7h1v1h-1zM12 7h1v1h-1zM12 3h1v1h-1zM12 1h1v1h-1zM5 4.5V3L4 4V2.5c0-.275.225-.5.5-.5H6V1H4.5C3.673 1 3 1.673 3 2.5V4L2 3v1.5L3.5 6 5 4.5zM8 7.586L8.414 8H9V7H8zM5.313 8h-3.35S1 8 1 9v5c0 1 .963 1 .963 1h4C6.963 15 7 14 7 14v-3.863L5.313 8zM6 12v2H2V9h3v1h1v2z"/></g><path class="st2" d="M2 9h3v1h1v4H2z" id="icon_x5F_fg"/></svg>