<svg xmlns="http://www.w3.org/2000/svg" viewBox="0 0 16 16"><style>.icon-canvas-transparent{opacity:0;fill:#f6f6f6}.icon-vs-green_x0020_2{fill:#393}.icon-vs-bg_x0020_2{fill:#424242}.st0{fill:#f6f6f6}</style><path class="icon-canvas-transparent" d="M16 16H0V0h16v16z" id="canvas"/><path class="st0" d="M16 8a8 8 0 0 1-8 8l-.06-.003c-.021 0-.04.003-.061.003-.062 0-.122-.014-.184-.015-.257-.01-.51-.03-.76-.064-3.181-.383-5.891-2.643-6.761-5.788L0 9.5V1h3v.68A7.89 7.89 0 0 1 6.935.079c.25-.033.504-.054.761-.064C7.758.014 7.817 0 7.879 0l.06.003C7.96.003 7.98 0 8 0a8 8 0 0 1 8 8z" id="outline"/><path class="icon-vs-bg_x0020_2" d="M10.37 10.664L8 8.057V4H7v4.443l2.63 2.893.74-.672z" id="iconBg"/><g id="colorAction"><path class="icon-vs-green_x0020_2" d="M14.88 8c0 3.859-3.141 7-7.001 7a7.016 7.016 0 0 1-6.741-5.134l.964-.266A6.013 6.013 0 0 0 7.879 14c3.309 0 6-2.691 6-6s-2.691-6-6.001-6a6 6 0 0 0-5.176 3H5v1H1V2h1v2.25C3.266 2.267 5.463 1 7.879 1c3.86 0 7.001 3.14 7.001 7z"/></g></svg>