<svg width="128" height="128" viewBox="0 0 160 160" xmlns="http://www.w3.org/2000/svg"><path fill="none" d="M0 0h160v160H0z"/><g><circle cy="80" cx="80.285" fill="#fff" r="80"/><path stroke-width="1.5" stroke="#878787" fill="#878787" d="M47 47h66v66H47z"/><path stroke-width="1.5" stroke="#fff" fill="#fff" d="M68 68h24v24H68z"/><path stroke-width="1.5" stroke="#878787" fill="#878787" d="M53 113h12v15H53zM74 113h12v15H74zM95 113h12v15H95zM113 53h15v12h-15zM113 95h15v12h-15zM113 74h15v12h-15zM53 32h12v15H53zM74 32h12v15H74zM95 32h12v15H95zM32 53h15v12H32zM32 74h15v12H32zM32 95h15v12H32z"/></g></svg>