<svg xmlns="http://www.w3.org/2000/svg" viewBox="0 0 16 16"><style>.icon-canvas-transparent{opacity:0;fill:#f6f6f6}.icon-vs-out{fill:#f6f6f6}.icon-vs-action-blue{fill:#00539c}</style><path class="icon-canvas-transparent" d="M0 16V0h16v16H0z" id="canvas"/><path class="icon-vs-out" d="M10.207 15.121l-2.828-2.828L8.672 11H5.5A5.506 5.506 0 0 1 0 5.5C0 2.468 2.467 0 5.5 0h1v4h-1C4.673 4 4 4.673 4 5.5S4.673 7 5.5 7h3.172L7.379 5.707l2.828-2.828L16 8.672v.656l-5.793 5.793z" id="outline"/><g id="iconBg"><path class="icon-vs-action-blue" d="M10.207 13.707l-1.414-1.414L11.086 10H5.5A4.505 4.505 0 0 1 1 5.5C1 3.019 3.019 1 5.5 1v2A2.503 2.503 0 0 0 3 5.5C3 6.879 4.122 8 5.5 8h5.586L8.793 5.707l1.414-1.414L14.914 9l-4.707 4.707z"/></g></svg>