<svg xmlns="http://www.w3.org/2000/svg" viewBox="0 0 16 16"><defs><style>.cls-1,.icon-canvas-transparent{fill:#f6f6f6}.icon-canvas-transparent{opacity:0}.icon-vs-fg{fill:#f0eff1}.icon-vs-bg{fill:#424242}</style></defs><title>Login_16x</title><path class="icon-canvas-transparent" d="M16 16H0V0h16z" id="canvas"/><path class="cls-1" d="M16 12H9.875a5.613 5.613 0 0 1 1.2 2.892L11.2 16H0v-1.46a5.633 5.633 0 0 1 1.977-3.4A4.439 4.439 0 0 1 5.445 4H8A3.46 3.46 0 0 1 11.5.5 3.5 3.5 0 0 1 15 4h1z" id="outline"/><path class="icon-vs-fg" d="M9.2 6a4.367 4.367 0 0 1 .445 4H14V6zM12 9h-1V7h1z" id="iconFg"/><g id="iconBg"><path class="icon-vs-bg" d="M7.4 11.3a3.441 3.441 0 1 0-3.807 0A4.618 4.618 0 0 0 .92 15h1.013a3.6 3.6 0 0 1 7.134 0h1.013a4.618 4.618 0 0 0-2.68-3.7zm-1.9-.422a2.441 2.441 0 1 1 2.44-2.441 2.444 2.444 0 0 1-2.44 2.445zM14 5V4a2.5 2.5 0 0 0-5 0v1h-.727A4.458 4.458 0 0 1 9.2 6H14v4H9.649a4.421 4.421 0 0 1-.534 1H15V5zm-1 0h-3V4a1.5 1.5 0 0 1 3 0z"/><path class="icon-vs-bg" d="M11 7h1v2h-1z"/></g></svg>