<svg xmlns="http://www.w3.org/2000/svg" viewBox="0 0 16 16"><style>.icon-canvas-transparent{opacity:0;fill:#f6f6f6}.icon-vs-out{fill:#f6f6f6}.icon-vs-bg{fill:#424242}.icon-vs-fg{fill:#f0eff1}</style><path class="icon-canvas-transparent" d="M16 16H0V0h16v16z" id="canvas"/><path class="icon-vs-out" d="M16 3v10h-2v2H2v-2H0V3h2V1h12v2h2z" id="outline"/><path class="icon-vs-fg" d="M2 5v6h12V5H2zm10 4H4V7h8v2z" id="iconFg"/><path class="icon-vs-bg" d="M13 4V2h-1v2h-2V2H9v2H7V2H6v2H4V2H3v2H1v8h2v2h1v-2h2v2h1v-2h2v2h1v-2h2v2h1v-2h2V4h-2zm1 7H2V5h12v6zm-2-2H4V7h8v2z" id="iconBg"/></svg>