<svg xmlns="http://www.w3.org/2000/svg" viewBox="0 0 16 16"><style>.st0{opacity:0}.st0,.st1{fill:#f6f6f6}.st2{fill:#424242}.st3{fill:#f0eff1}</style><g id="outline"><path class="st0" d="M0 0h16v16H0z"/><path class="st1" d="M11.653 5c.221-.459.347-.967.347-1.5C12 1.57 10.43 0 8.5 0S5 1.57 5 3.5c0 .533.126 1.041.347 1.5H2v11h13V5h-3.347z"/></g><g id="icon_x5F_bg"><path class="st2" d="M7.717 5.862L8.501 9l.784-3.139A2.49 2.49 0 0 0 11 3.5a2.5 2.5 0 1 0-5 0c0 1.105.722 2.032 1.717 2.362z"/><path class="st2" d="M10.936 6a3.434 3.434 0 0 1-.8.582L10.031 7H13v7H4V7h2.97l-.104-.416A3.504 3.504 0 0 1 6.064 6H3v9h11V6h-3.064z"/></g><path class="st3" d="M10.031 7l-.56 2.242h-1.94L6.97 7H4v7h9V7z" id="icon_x5F_fg"/></svg>