<svg xmlns="http://www.w3.org/2000/svg" viewBox="0 0 16 16"><style>.st0{fill:#f6f6f6}.st1{fill:#424242}.st2{fill:#00539c}.st3{fill:#f0eff1}</style><path class="st0" d="M13.547 0H8c-.417 0-.834.147-1.185.402L6.416 0h-4.82l1.309 1.317c-.343.214-.621.54-.774.963A3.505 3.505 0 0 0 0 5.5c0 1.391.822 2.585 2 3.149V11c0 1.299 1.031 2 2 2h1v1c0 1.299 1.031 2 2 2h6c1.299 0 2-1.03 2-2v-2.258c.65-.364 1-1.064 1-1.742V2.062L13.547 0z" id="outline"/><g id="icon_x5F_bg"><path class="st1" d="M4 9h-.5c-.171 0-.335-.027-.5-.051V11c0 1 .965 1 .965 1H5v-1H4V9zM11.625 5h-3.2L7.419 6H11v2h2v6H7V6.416L6.413 7H6v7c0 1 .965 1 .965 1h6c1 0 1.035-1 1.035-1V7.137L11.625 5zM12.625 1h-4.66s-.218.003-.446.11l.884.89H12v2h2v1.241l.925.759H15V3.136L12.625 1z"/></g><path class="st2" d="M4 8V7h-.5C2.673 7 2 6.327 2 5.5S2.673 4 3.5 4h2.513L4 6h2l2.5-2.484L6 1H4l1.988 2H3.5a2.5 2.5 0 1 0 0 5H4z" id="color_x5F_importance"/><g id="icon_x5F_fg"><path class="st3" d="M12.547 4L14 5.221V4zM11 7.96V6H7v8h6V8h-2zM4 9h1v2H4zM8.403 2l1.511 1.52-.483.48H12V2z"/></g></svg>