<svg xmlns="http://www.w3.org/2000/svg" viewBox="0 0 16 16" enable-background="new 0 0 16 16"><style type="text/css">.icon-canvas-transparent{opacity:0;fill:#F6F6F6;} .icon-vs-out{fill:#F6F6F6;} .icon-vs-bg{fill:#424242;} .icon-vs-fg{fill:#F0EFF1;}</style><path class="icon-canvas-transparent" d="M16 16h-16v-16h16v16z" id="canvas"/><path class="icon-vs-out" d="M13.443 1.785c-.308-.509-.98-1.32-1.826-1.785h-2.318c-.432.274-.862.698-1.299 1.313-.44-.615-.874-1.039-1.315-1.313h-2.32c-.83.466-1.501 1.276-1.809 1.785-.276.455-.414.861-.467 1.215h-2.089v6h1v7h14v-7h1v-6h-2.089c-.053-.354-.191-.761-.468-1.215z" id="outline"/><path class="icon-vs-fg" d="M2 5h5.5v2h-5.5v-2zm1 9v-6h4.5v6h-4.5zm10 0h-4.5v-6h4.5v6zm1-7h-5.5v-2h5.5v2z" id="iconFg"/><path class="icon-vs-bg" d="M12.683 4l.136-.158c.153-.277.238-.769-.23-1.539-.423-.697-1.374-1.666-2.18-1.666h-.025c-.833.022-1.739 1.389-2.384 2.602-.645-1.214-1.551-2.58-2.384-2.601h-.026c-.805 0-1.756.969-2.179 1.666-.467.77-.383 1.261-.229 1.538l.135.158h-2.317v4h1v7h12v-7h1v-4h-2.317zm-2.274-2.362h.003c.147 0 .627.278 1.081.843.381.474.465.809.451.875-.188.283-1.589.497-3.142.509.622-1.172 1.326-2.16 1.607-2.227zm-5.902.842c.455-.566.936-.844 1.068-.844h.001c.293.068.999 1.057 1.62 2.229-1.551-.011-2.952-.224-3.134-.495-.02-.08.064-.415.445-.89zm-2.507 2.52h5.5v2h-5.5v-2zm1 9v-6h4.5v6h-4.5zm10 0h-4.5v-6h4.5v6zm1-7h-5.5v-2h5.5v2z" id="iconBg"/></svg>