<svg xmlns="http://www.w3.org/2000/svg" viewBox="0 0 16 16"><style>.st0{opacity:0}.st0,.st1{fill:#f6f6f6}.st2{fill:#424242}.st3{fill:#f0eff1}</style><g id="outline"><path class="st0" d="M0 0h16v16H0z"/><path class="st1" d="M3 16V8.121l-3-2.99v-.254L4.869 0h1.549l1.35 1.354L7.121 2l1 1H15v9.414L11.414 16H3z"/></g><path class="st2" d="M7.707 4l-2-2 .646-.646-.707-.708L1.293 5 4 7.707V15h7l3-3V4H7.707zm-5 1L5 2.707l1.646 1.646-2.292 2.293L2.707 5zM7 5.414V7H5.414L7 5.414zM10 14H5V8h5v6zm.293-7H8V5h4.293l-2 2zM13 11.586l-2 2V7.707l2-2v5.879z" id="icon_x5F_bg"/><g id="icon_x5F_fg"><path class="st3" d="M12.293 5l-2 2H8V5zM7 5.414V7H5.414zM5 8h5v6H5zM11 13.563V7.707l2-2v5.856z"/><path transform="rotate(-45.001 4.677 4.677)" class="st3" d="M3.055 3.513h3.243v2.328H3.055z"/></g></svg>