<svg xmlns="http://www.w3.org/2000/svg" width="16" height="16"><style type="text/css">.icon-canvas-transparent{opacity:0;fill:#F6F6F6;} .icon-vs-out{fill:#F6F6F6;} .icon-vs-bg{fill:#424242;} .icon-vs-fg{fill:#F0EFF1;}</style><path class="icon-canvas-transparent" d="M16 16h-16v-16h16v16z" id="canvas"/><path class="icon-vs-out" d="M15 0v16h-14v-16h14z" id="outline"/><path class="icon-vs-bg" d="M11 4h-7v-1h7v1zm-4 9h2v-4h-2v4zm3 0h2v-6h-2v6zm-4-6h-2v1h2v-1zm8-6v14h-12v-14h12zm-1 1h-10v12h10v-12zm-7 9h-2v2h2v-2zm2-6h-4v1h4v-1z" id="iconBg"/><path class="icon-vs-fg" d="M3 2v12h10v-12h-10zm1 1h7v1h-7v-1zm0 2h4v1h-4v-1zm2 8h-2v-2h2v2zm0-5h-2v-1h2v1zm3 5h-2v-4h2v4zm3 0h-2v-6h2v6z" id="iconFg"/></svg>