<svg xmlns="http://www.w3.org/2000/svg" viewBox="0 0 16 16"><style>.icon-canvas-transparent{opacity:0;fill:#f6f6f6}.icon-vs-out{fill:#f6f6f6}.icon-vs-fg{fill:#f0eff1}.icon-vs-action-blue{fill:#00539c}</style><path class="icon-canvas-transparent" d="M16 0v16H0V0h16z" id="canvas"/><path class="icon-vs-out" d="M16 0v10h-6v6H1.586L0 14.414V6h6V0h10z" id="outline"/><path class="icon-vs-fg" d="M3 13h4v2H5v-1H4v1H3v-2zm3-5H2v2h5.586L6 8.414V8zm3 1h1V8h1v1h2V7H9v2zM8 2v2h6V2H8z" id="iconFg"/><g id="iconBg"><path class="icon-vs-action-blue" d="M2 10h7v5H7v-2H3v2H2l-1-1V7h5v1H2v2zm2 5h1v-1H4v1zm6-6h1V8h-1v1zm5-8v8h-2V7H9v2H8L7 8V1h8zm-1 1H8v2h6V2z"/></g></svg>