<svg xmlns="http://www.w3.org/2000/svg" viewBox="0 0 16 16"><style>.st0{opacity:0}.st0,.st1{fill:#f6f6f6}.st2{fill:#424242}.st3{fill:#f0eff1}</style><g id="outline"><path class="st0" d="M0 0h16v16H0z"/><path class="st1" d="M15.087 3.925C14.577 3.337 13.816 3 13 3H4c-.816 0-1.577.337-2.087.925-.51.587-.736 1.388-.62 2.197l.435 3.041C1.955 10.753 3.392 12 5 12h7c1.607 0 3.045-1.247 3.273-2.838l.434-3.041c.115-.808-.11-1.609-.62-2.196z"/></g><path class="st2" d="M13 4H4c-1.104 0-1.874.886-1.717 1.98l.435 3.04C2.874 10.113 3.896 11 5 11h7c1.104 0 2.127-.887 2.283-1.98l.434-3.04C14.873 4.886 14.104 4 13 4zM3.75 6.5a.749.749 0 1 1 1.5 0 .749.749 0 1 1-1.5 0zM5.5 9.25a.749.749 0 1 1 0-1.5.749.749 0 1 1 0 1.5zm.25-2.75a.749.749 0 1 1 1.5 0 .749.749 0 1 1-1.5 0zM7.5 9.25a.749.749 0 1 1 0-1.5.749.749 0 1 1 0 1.5zm.25-2.75a.749.749 0 1 1 1.5 0 .749.749 0 1 1-1.5 0zM9.5 9.25a.75.75 0 1 1 0-1.5.75.75 0 0 1 0 1.5zm.25-2.75a.75.75 0 1 1 1.5 0 .75.75 0 0 1-1.5 0zm1.75 2.75a.75.75 0 1 1 0-1.5.75.75 0 0 1 0 1.5zm1-2a.75.75 0 1 1 0-1.5.75.75 0 0 1 0 1.5z" id="icon_x5F_bg"/><g id="icon_x5F_fg"><circle class="st3" cx="4.5" cy="6.5" r=".75"/><circle class="st3" cx="6.5" cy="6.5" r=".75"/><circle class="st3" cx="8.5" cy="6.5" r=".75"/><circle class="st3" cx="10.5" cy="6.5" r=".75"/><circle class="st3" cx="12.5" cy="6.5" r=".75"/><circle class="st3" cx="5.5" cy="8.5" r=".75"/><circle class="st3" cx="7.5" cy="8.5" r=".75"/><circle class="st3" cx="9.5" cy="8.5" r=".75"/><circle class="st3" cx="11.5" cy="8.5" r=".75"/></g></svg>