<svg xmlns="http://www.w3.org/2000/svg" viewBox="0 0 16 16"><style>.st0{opacity:0}.st0,.st1{fill:#f6f6f6}.st2{fill:#424242}.st3{fill:#00539c}</style><g id="outline"><path class="st0" d="M0 0h16v16H0z"/><path class="st1" d="M13 5H7l2-2L5.999-.001 0 0l1 1H0v4h1L0 6v1h4.185A2.938 2.938 0 0 0 4 8c0 .519.143 1.039.413 1.503l.289.497H6v6h7v-3h-1v-1h2v-2h1.298l.289-.497C15.857 9.039 16 8.519 16 8c0-1.654-1.346-3-3-3z"/></g><g id="icon_x5F_bg"><path class="st2" d="M7 10h6v1H7zM7 12h4v1H7zM7 14h5v1H7zM13 6H7a2 2 0 0 0-2 2c0 .366.105.705.277 1H8V7h4v2h2.723c.171-.295.277-.634.277-1a2 2 0 0 0-2-2z"/></g><path class="st3" d="M0 4h4L2 6h2l3-3-3-3H2l2 2H0v2z" id="color_x5F_action"/></svg>