<?xml version="1.0" standalone="no"?><!DOCTYPE svg PUBLIC "-//W3C//DTD SVG 1.1//EN" "http://www.w3.org/Graphics/SVG/1.1/DTD/svg11.dtd"><svg t="1596107328191" class="icon" viewBox="0 0 1024 1024" version="1.1" xmlns="http://www.w3.org/2000/svg" p-id="3105" xmlns:xlink="http://www.w3.org/1999/xlink" width="16" height="16"><defs><style type="text/css"></style></defs><path d="M222.634667 272.298667A382.4 382.4 0 0 0 138.666667 512c0 212.117333 171.904 384 384 384 90.666667 0 174.016-31.424 239.701333-83.968l-539.733333-539.733333z m60.330666-60.330667l539.733334 539.733333A382.4 382.4 0 0 0 906.666667 512c0-212.117333-171.904-384-384-384-90.666667 0-174.016 31.424-239.701334 83.968zM53.333333 512c0-259.221333 210.090667-469.333333 469.333334-469.333333 259.221333 0 469.333333 210.090667 469.333333 469.333333 0 259.221333-210.090667 469.333333-469.333333 469.333333-259.221333 0-469.333333-210.090667-469.333334-469.333333z" p-id="3106" fill="#ff0000"></path></svg>