<svg xmlns="http://www.w3.org/2000/svg" width="16" height="16"><style type="text/css">.icon-canvas-transparent{opacity:0;fill:#F6F6F6;} .icon-vs-out{fill:#F6F6F6;} .icon-vs-blue{fill:#1BA1E2;} .icon-white{fill:#FFFFFF;}</style><path class="icon-canvas-transparent" d="M16 16h-16v-16h16v16z" id="canvas"/><path class="icon-vs-out" d="M0 8c0-4.418 3.582-8 8-8s8 3.582 8 8-3.582 8-8 8-8-3.582-8-8z" id="outline"/><path class="icon-vs-blue" d="M8 1c-3.866 0-7 3.134-7 7 0 3.865 3.134 7 7 7s7-3.135 7-7c0-3.866-3.134-7-7-7zm1 12h-2v-2h2v2zm2-6c0 1.104-.898 2-2 2v1h-2v-1c0-1.104.897-2 2-2v-1.797c-.159-.088-.505-.203-1-.203s-.841.115-1 .203v.797h-2v-1c0-1.159 1.262-2 3-2s3 .841 3 2v2z" id="iconBg"/><path class="icon-white" d="M9 10h-2v-1c0-1.104.897-2 2-2v-1.797c-.159-.088-.505-.203-1-.203s-.841.115-1 .203v.797h-2v-1c0-1.159 1.262-2 3-2s3 .841 3 2v2c0 1.104-.898 2-2 2v1zm0 1h-2v2h2v-2z" id="iconFg"/></svg>