<svg xmlns="http://www.w3.org/2000/svg" viewBox="0 0 16 16"><style>.icon-canvas-transparent{opacity:0;fill:#f6f6f6}.icon-vs-out{fill:#f6f6f6}.icon-vs-red{fill:#e51400}</style><path class="icon-canvas-transparent" d="M16 16H0V0h16v16z" id="canvas"/><path class="icon-vs-out" d="M8.042 15.896c-4.37 0-7.925-3.565-7.925-7.948C.117 3.565 3.672 0 8.042 0s7.925 3.565 7.925 7.948c0 4.383-3.555 7.948-7.925 7.948z" id="outline"/><g id="iconBg"><path class="icon-vs-red" d="M8.051.971a6.97 6.97 0 1 0 .002 13.938A6.97 6.97 0 0 0 8.051.971zm-4.97 6.968c0-1.057.338-2.036.903-2.841l6.734 7.021a4.93 4.93 0 0 1-2.668.791 4.978 4.978 0 0 1-4.969-4.971zm9.078 2.792L5.44 3.728a4.938 4.938 0 0 1 2.611-.759c2.74 0 4.97 2.231 4.97 4.97a4.954 4.954 0 0 1-.862 2.792z"/></g></svg>