<svg xmlns="http://www.w3.org/2000/svg" viewBox="0 0 16 16"><style>.icon-canvas-transparent{opacity:0;fill:#f6f6f6}.icon-vs-out{fill:#f6f6f6}.icon-vs-bg{fill:#424242}.icon-vs-fg{fill:#f0eff1}</style><path class="icon-canvas-transparent" d="M16 0v16H0V0h16z" id="canvas"/><path class="icon-vs-out" d="M13.621 0H8v8H0v8h9v-2h4v-2.379l.146.146L14.914 10H16V2.379L13.621 0zM9 11v-.086l.086.086H9z" id="outline"/><path class="icon-vs-fg" d="M2 11h1v1H2v-1zm2 1h1v-1H4v1zm2 0h1v-1H6v1zm-4 2h1v-1H2v1zm2 0h1v-1H4v1zm2 0h1v-1H6v1zm6-10V2h-2v6h.793l.707-.707.707.707H14V4h-2zm1-1.793V3h.793L13 2.207z" id="iconFg"/><g id="iconBg"><path class="icon-vs-bg" d="M13.207 1H9v7h1V2h2v2h2v5h1V2.793L13.207 1zM13 3v-.793l.793.793H13zM9.146 9.646l.707.707L11 9.207V12H8V9H1v6h7v-2h4V9.207l1.146 1.146.707-.707L11.5 7.293 9.146 9.646zM3 14H2v-1h1v1zm0-2H2v-1h1v1zm2 2H4v-1h1v1zm0-2H4v-1h1v1zm2 2H6v-1h1v1zm0-2H6v-1h1v1z"/></g></svg>