<svg t="1617808795693" class="icon" viewBox="0 0 1024 1024" version="1.1" xmlns="http://www.w3.org/2000/svg" p-id="16110" width="16" height="16"><path d="M75.09333333 311.7996563h291.27111112v-127.38256593H111.59931259A36.50597925 36.50597925 0 0 0 75.09333333 220.72888889z" fill="#0E3693" p-id="16111"></path><path d="M657.63555555 184.41709037h-291.2711111v127.38256593h291.2711111z" fill="#426CBB" p-id="16112"></path><path d="M948.90666667 311.7996563h-291.27111112v-127.38256593h254.9593126A36.31179852 36.31179852 0 0 1 948.90666667 220.72888889z" fill="#5A75D1" p-id="16113"></path><path d="M912.59486815 839.77709037H111.59931259A36.50597925 36.50597925 0 0 1 75.09333333 803.27111111V293.54666667h873.81333334V803.27111111a36.50597925 36.50597925 0 0 1-36.31179852 36.50597926z" fill="#333333" p-id="16114"></path><path d="M351.80088889 517.43706075l-160.19911111 160.1991111a19.41807408 19.41807408 0 0 0 0 29.12711112l32.81654519 32.81654518a19.41807408 19.41807408 0 0 0 29.12711111 0l160.1991111-160.19911112a19.41807408 19.41807408 0 0 0 0-29.12711111l-32.81654518-32.81654517a22.33078518 22.33078518 0 0 0-29.12711111 0z" fill="#bfbfbf" p-id="16115"></path><path d="M253.54543408 390.05449482L413.74454518 550.83614815a19.41807408 19.41807408 0 0 1 0 29.1271111l-32.81654518 32.8165452a19.41807408 19.41807408 0 0 1-29.12711111 0l-160.19911111-160.78165334a19.41807408 19.41807408 0 0 1 0-29.12711111l32.81654519-32.81654518a21.9424237 21.9424237 0 0 1 29.12711111 0z" fill="#CCCCCC" p-id="16116"></path><path d="M253.54543408 390.05449482L413.74454518 550.83614815a19.41807408 19.41807408 0 0 1 0 29.1271111l-32.81654518 32.8165452a19.41807408 19.41807408 0 0 1-29.12711111 0l-160.19911111-160.78165334a19.41807408 19.41807408 0 0 1 0-29.12711111l32.81654519-32.81654518a21.9424237 21.9424237 0 0 1 29.12711111 0z" fill="#e6e6e6" p-id="16117"></path><path d="M803.27111111 657.63555555H512a17.28208592 17.28208592 0 0 0-18.25298963 18.25298963v54.56478815a17.28208592 17.28208592 0 0 0 18.25298963 18.25298964h291.27111111a17.28208592 17.28208592 0 0 0 18.25298964-18.25298964v-54.56478815a17.28208592 17.28208592 0 0 0-18.25298964-18.25298963z" fill="#e6e6e6" p-id="16118"></path></svg>