<svg t="1610797201062" class="icon" viewBox="0 0 1024 1024" version="1.1" xmlns="http://www.w3.org/2000/svg" p-id="2782" width="16" height="16"><path d="M480 512v-0.112-0.112a47.84 47.84 0 0 0-14.688-34.544l0.016-0.016-288-288-0.128 0.128a48 48 0 1 0-64.464 71.056l251.488 251.488L109.44 766.672l0.016 0.016a48 48 0 0 0 67.856 67.856l0.016 0.016 288-288-0.016-0.016A47.84 47.84 0 0 0 480 512z m408 240h-368a40 40 0 0 0-40 40v16a40 40 0 0 0 40 40h368a40 40 0 0 0 40-40v-16a40 40 0 0 0-40-40z" fill="#959595" p-id="2783"></path></svg>