<?xml version="1.0" standalone="no"?><!DOCTYPE svg PUBLIC "-//W3C//DTD SVG 1.1//EN" "http://www.w3.org/Graphics/SVG/1.1/DTD/svg11.dtd"><svg t="1613394209701" class="icon" viewBox="0 0 1024 1024" version="1.1" xmlns="http://www.w3.org/2000/svg" p-id="12351" width="16" height="16" xmlns:xlink="http://www.w3.org/1999/xlink"><defs><style type="text/css"></style></defs><path d="M213.333333 341.333333l37.12 517.973334a85.333333 85.333333 0 0 0 85.333334 79.36h353.28a85.333333 85.333333 0 0 0 85.333333-79.36L810.666667 341.333333z m430.506667 378.026667a20.48 20.48 0 0 1 0 29.866667l-22.613333 22.613333a20.48 20.48 0 0 1-29.866667 0L512 692.906667l-79.36 78.933333a20.48 20.48 0 0 1-29.866667 0l-22.613333-22.613333a20.48 20.48 0 0 1 0-29.866667L459.093333 640l-78.933333-79.36a20.48 20.48 0 0 1 0-29.866667l22.613333-22.613333a20.48 20.48 0 0 1 29.866667 0L512 587.093333l79.36-78.933333a20.48 20.48 0 0 1 29.866667 0l22.613333 22.613333a20.48 20.48 0 0 1 0 29.866667L564.906667 640zM832 170.666667H640V128a42.666667 42.666667 0 0 0-42.666667-42.666667h-170.666666a42.666667 42.666667 0 0 0-42.666667 42.666667v42.666667H192a21.333333 21.333333 0 0 0-21.333333 21.333333v42.666667a21.333333 21.333333 0 0 0 21.333333 21.333333h640a21.333333 21.333333 0 0 0 21.333333-21.333333v-42.666667a21.333333 21.333333 0 0 0-21.333333-21.333333z" p-id="12352" fill="#dbdbdb"></path></svg>